<?xml version="1.0" standalone="no"?><!DOCTYPE svg PUBLIC "-//W3C//DTD SVG 1.1//EN" "http://www.w3.org/Graphics/SVG/1.1/DTD/svg11.dtd"><svg height="1024" node-id="1" sillyvg="true" template-height="1024" template-width="1024" version="1.1" viewBox="0 0 1024 1024" width="1024" xmlns="http://www.w3.org/2000/svg" xmlns:xlink="http://www.w3.org/1999/xlink"><defs node-id="109"></defs><path d="M 489.65 220.40 C 439.07 240.57 391.00 283.74 353.12 324.00 C 274.25 407.82 262.49 425.44 165.19 495.82 C 108.49 536.82 63.78 571.52 41.76 617.92 C -20.12 748.24 53.58 889.00 208.00 889.00 L 835.80 889.00 C 835.80 889.00 909.64 890.79 963.53 821.13 C 1146.17 585.00 843.24 79.43 489.65 220.40" fill="#ecf5ff" fill-rule="evenodd" node-id="111" stroke="none" target-height="811.36" target-width="1166.29" target-x="-20.12" target-y="79.43"></path><path d="M 124.41 609.36 C 135.54 594.15 143.81 577.04 148.80 558.86 C 150.55 552.49 151.89 545.86 150.80 539.31 C 150.15 535.49 148.38 531.51 144.92 529.78 C 140.42 527.52 135.07 529.78 130.58 532.07 C 136.72 518.70 142.03 503.23 136.44 489.61 C 135.19 486.25 133.00 483.31 130.14 481.15 C 127.22 479.01 123.44 478.42 120.00 479.57 C 114.63 481.67 112.59 488.07 111.23 493.67 C 107.43 476.94 103.09 459.21 90.76 447.28 C 86.95 443.60 82.34 440.54 77.14 439.55 C 71.11 438.50 64.93 440.22 60.31 444.24 C 55.09 448.75 53.13 455.55 52.39 462.24 C 51.82 468.03 52.15 473.87 53.39 479.55 C 55.54 489.94 60.00 499.69 64.39 509.33 C 59.60 505.51 53.51 501.47 47.83 503.76 C 42.55 505.89 40.66 512.60 41.37 518.25 C 42.37 526.07 46.88 533.11 52.63 538.51 C 58.38 543.91 65.31 547.86 72.24 551.62 C 67.65 552.34 62.59 553.62 60.05 557.50 C 58.13 560.44 58.15 564.34 59.37 567.64 C 60.73 570.89 62.73 573.83 65.25 576.30 C 80.85 592.93 102.81 601.79 124.15 609.80 Z" fill="#59d1ba" fill-rule="nonzero" node-id="113" stroke="none" target-height="171.30423" target-width="111.229996" target-x="40.66" target-y="438.49576"></path><g node-id="354"><g node-id="375"><path d="M 66.40 441.66 L 68.57 440.93 L 125.93 611.23 L 123.77 611.96 Z" fill="#ffffff" fill-opacity="0.3" fill-rule="nonzero" group-id="1,22" node-id="119" stroke="none" target-height="171.02661" target-width="59.52919" target-x="66.40279" target-y="440.93378"></path></g></g><path d="M 122.41 524.19 C 122.40 527.71 119.55 530.56 116.03 530.56 C 112.51 530.56 109.66 527.71 109.65 524.20 C 109.64 520.68 112.48 517.82 116.00 517.80 C 117.70 517.79 119.33 518.46 120.53 519.66 C 121.74 520.86 122.41 522.49 122.41 524.19 Z" fill="#ffffff" fill-rule="nonzero" node-id="123" stroke="none" target-height="12.769775" target-width="12.771828" target-x="109.64085" target-y="517.792"></path><path d="M 79.34 500.26 C 79.34 502.84 77.78 505.17 75.39 506.16 C 73.00 507.14 70.26 506.59 68.43 504.76 C 66.61 502.92 66.08 500.17 67.08 497.79 C 68.08 495.41 70.42 493.86 73.00 493.88 C 76.51 493.90 79.34 496.75 79.34 500.26 Z" fill="#ffffff" fill-rule="nonzero" node-id="125" stroke="none" target-height="13.279358" target-width="13.262985" target-x="66.07709" target-y="493.8638"></path><path d="M 96.89 570.44 C 96.89 573.96 94.03 576.82 90.51 576.82 C 86.99 576.82 84.13 573.96 84.13 570.44 C 84.13 566.92 86.99 564.06 90.51 564.06 C 94.03 564.06 96.89 566.92 96.89 570.44 Z" fill="#ffffff" fill-rule="nonzero" node-id="127" stroke="none" target-height="12.76001" target-width="12.760002" target-x="84.13" target-y="564.06"></path><g node-id="355"><g node-id="376"><path d="M 85.75 494.58 L 99.85 462.34 L 101.94 463.25 L 87.84 495.50 Z" fill="#ffffff" fill-opacity="0.3" fill-rule="nonzero" group-id="2,23" node-id="133" stroke="none" target-height="33.15747" target-width="16.183044" target-x="85.752045" target-y="462.33862"></path></g></g><g node-id="356"><g node-id="377"><path d="M 41.29 513.51 L 42.27 511.46 L 100.03 538.99 L 99.05 541.05 Z" fill="#ffffff" fill-opacity="0.3" fill-rule="nonzero" group-id="3,24" node-id="141" stroke="none" target-height="29.596405" target-width="58.742462" target-x="41.291443" target-y="511.4565"></path></g></g><g node-id="357"><g node-id="378"><path d="M 113.38 574.98 L 143.79 531.52 L 145.66 532.83 L 115.25 576.29 Z" fill="#ffffff" fill-opacity="0.3" fill-rule="nonzero" group-id="4,25" node-id="149" stroke="none" target-height="44.773743" target-width="32.28116" target-x="113.38162" target-y="531.5182"></path></g></g><path d="M 142.33 598.33 C 135.40 583.23 131.49 566.93 130.82 550.33 C 130.61 544.61 130.82 538.75 133.34 533.64 C 134.81 530.64 137.34 527.79 140.98 527.23 C 145.69 526.50 150.17 529.74 153.86 532.75 C 151.11 520.13 149.61 505.97 157.86 496.11 C 159.87 493.58 162.58 491.70 165.65 490.69 C 168.96 489.66 172.55 490.12 175.49 491.95 C 180.05 495.04 180.49 500.86 180.55 505.84 C 187.84 492.95 195.87 479.36 210.06 472.59 C 214.52 470.31 219.52 469.27 224.52 469.59 C 230.32 470.20 235.62 473.14 239.22 477.73 C 243.09 482.79 243.39 488.91 242.59 494.62 C 241.85 499.57 240.23 504.34 237.82 508.72 C 233.50 516.78 227.15 523.72 220.82 530.59 C 226.15 528.64 232.76 526.82 237.56 530.16 C 242.02 533.25 242.28 539.29 240.36 543.79 C 237.69 550.02 231.88 554.71 225.29 557.72 C 218.70 560.73 211.29 562.26 204.02 563.63 C 208.16 565.38 212.61 567.70 214.11 571.57 C 215.10 574.52 214.49 577.77 212.48 580.14 C 210.42 582.53 207.89 584.47 205.04 585.83 C 186.74 595.66 164.23 597.45 142.48 598.70 C 142.46 598.62 142.40 598.48 142.33 598.33 Z" fill="#47b0aa" fill-rule="nonzero" node-id="153" stroke="none" target-height="129.43097" target-width="112.78" target-x="130.61" target-y="469.26904"></path><g node-id="358"><path d="M 143.43 599.81 L 234.88 473.55 L 233.03 472.40 L 141.57 598.66 L 143.43 599.81 Z" fill="#ffffff" fill-opacity="0.3" fill-rule="nonzero" group-id="5" node-id="157" stroke="none" target-height="127.41" target-width="93.31" target-x="141.57" target-y="472.4"></path></g><path d="M 163.25 528.31 C 162.46 531.22 164.50 534.31 167.79 535.20 C 171.08 536.09 174.39 534.45 175.18 531.53 C 175.97 528.61 173.94 525.53 170.64 524.63 C 167.34 523.73 164.00 525.39 163.25 528.31 Z" fill="#ffffff" fill-rule="nonzero" node-id="160" stroke="none" target-height="12.360046" target-width="13.5099945" target-x="162.46" target-y="523.73"></path><path d="M 208.87 519.37 C 208.08 522.28 210.12 525.37 213.41 526.26 C 216.70 527.15 220.02 525.51 220.80 522.59 C 221.58 519.67 219.56 516.59 216.26 515.69 C 212.96 514.79 209.66 516.45 208.87 519.37 Z" fill="#ffffff" fill-rule="nonzero" node-id="162" stroke="none" target-height="12.360046" target-width="13.5" target-x="208.08" target-y="514.79"></path><path d="M 176.77 573.06 C 175.98 575.98 178.02 579.06 181.31 579.95 C 184.60 580.84 187.91 579.20 188.70 576.28 C 189.49 573.36 187.46 570.28 184.16 569.39 C 180.86 568.50 177.56 570.14 176.77 573.06 Z" fill="#ffffff" fill-rule="nonzero" node-id="164" stroke="none" target-height="12.340027" target-width="13.51001" target-x="175.98" target-y="568.5"></path><g node-id="359"><path d="M 202.00 513.27 L 204.16 513.04 L 198.18 482.78 L 196.02 483.01 L 202.00 513.27 Z" fill="#ffffff" fill-opacity="0.3" fill-rule="nonzero" group-id="6" node-id="168" stroke="none" target-height="30.49002" target-width="8.139999" target-x="196.02" target-y="482.78"></path></g><g node-id="360"><path d="M 181.31 548.17 L 241.48 539.95 L 241.02 538.00 L 180.86 546.22 L 181.31 548.17 Z" fill="#ffffff" fill-opacity="0.3" fill-rule="nonzero" group-id="7" node-id="173" stroke="none" target-height="10.169983" target-width="60.61998" target-x="180.86" target-y="538"></path></g><g node-id="361"><path d="M 158.29 573.25 L 160.33 572.64 L 141.60 528.97 L 139.57 529.58 L 158.29 573.25 Z" fill="#ffffff" fill-opacity="0.3" fill-rule="nonzero" group-id="8" node-id="178" stroke="none" target-height="44.28003" target-width="20.759995" target-x="139.57" target-y="528.97"></path></g><path d="M 176.39 844.56 L 97.36 844.56 L 82.99 593.10 L 190.76 593.10 L 176.39 844.56 Z" fill="#7bbaff" fill-rule="nonzero" node-id="181" stroke="none" target-height="251.46002" target-width="107.77" target-x="82.99" target-y="593.1"></path><path d="M 843.50 89.00 C 898.50 89.00 943.00 114.34 943.00 145.60 C 943.00 176.86 898.45 202.20 843.50 202.20 C 788.55 202.20 744.00 176.82 744.00 145.56 C 744.00 114.30 788.55 89.00 843.50 89.00" fill="#cedfff" fill-rule="evenodd" node-id="183" stroke="none" target-height="113.2" target-width="199" target-x="744" target-y="89"></path><path d="M 800.37 198.52 L 789.13 231.38 L 821.72 207.47 L 800.37 198.52 Z" fill="#d0e0ff" fill-rule="evenodd" node-id="185" stroke="none" target-height="32.859985" target-width="32.589966" target-x="789.13" target-y="198.52002"></path><path d="M 886.84 166.41 L 797.91 166.41 C 786.04 166.41 776.41 156.78 776.41 144.91 L 776.41 144.91 C 776.41 139.21 778.68 133.74 782.71 129.71 C 786.74 125.68 792.21 123.42 797.91 123.42 L 886.84 123.42 C 892.54 123.42 898.01 125.68 902.04 129.71 C 906.07 133.74 908.34 139.21 908.34 144.91 L 908.34 144.91 C 908.34 156.78 898.71 166.41 886.84 166.41 Z" fill="#ff9c39" fill-rule="nonzero" node-id="187" stroke="none" target-height="42.992653" target-width="131.93005" target-x="776.41" target-y="123.41735"></path><path d="M 824.28 145.00 C 824.29 147.23 822.95 149.24 820.90 150.09 C 818.85 150.95 816.48 150.49 814.90 148.92 C 813.32 147.35 812.85 144.98 813.69 142.93 C 814.54 140.87 816.54 139.52 818.77 139.52 C 821.80 139.51 824.27 141.97 824.28 145.00 Z" fill="#ffffff" fill-rule="nonzero" node-id="189" stroke="none" target-height="11.438324" target-width="11.440979" target-x="812.84705" target-y="139.51447"></path><path d="M 847.88 144.90 C 847.89 147.94 845.43 150.40 842.39 150.41 C 839.36 150.42 836.89 147.96 836.88 144.93 C 836.87 141.89 839.32 139.42 842.36 139.41 C 843.82 139.40 845.22 139.98 846.26 141.01 C 847.29 142.04 847.88 143.44 847.88 144.90 Z" fill="#ffffff" fill-rule="nonzero" node-id="191" stroke="none" target-height="11.012604" target-width="11.014587" target-x="836.8709" target-y="139.4047"></path><path d="M 871.47 144.82 C 871.48 147.86 869.03 150.33 865.99 150.34 C 862.95 150.35 860.48 147.90 860.47 144.86 C 860.46 141.82 862.91 139.35 865.95 139.34 C 868.99 139.33 871.45 141.78 871.47 144.82 Z" fill="#ffffff" fill-rule="nonzero" node-id="193" stroke="none" target-height="11.016525" target-width="11.022034" target-x="860.459" target-y="139.33444"></path><path d="M 106.64 150.28 L 249.15 150.28 C 250.70 150.28 252.19 150.90 253.29 151.99 C 254.38 153.09 255.00 154.58 255.00 156.13 L 255.00 282.77 C 255.00 284.32 254.38 285.81 253.29 286.91 C 252.19 288.00 250.70 288.62 249.15 288.62 L 106.64 288.62 C 105.09 288.62 103.60 288.00 102.50 286.91 C 101.41 285.81 100.79 284.32 100.79 282.77 L 100.79 156.13 C 100.79 154.58 101.41 153.09 102.50 151.99 C 103.60 150.90 105.09 150.28 106.64 150.28 Z" fill="#cedfff" fill-rule="nonzero" node-id="195" stroke="none" target-height="138.34" target-width="154.20999" target-x="100.79001" target-y="150.28"></path><path d="M 177.89 272.00 L 217.53 309.39 C 218.43 310.23 219.74 310.46 220.88 309.98 C 222.01 309.49 222.75 308.37 222.75 307.14 L 222.75 260.75 Z" fill="#cedfff" fill-rule="nonzero" node-id="197" stroke="none" target-height="49.713318" target-width="44.86" target-x="177.89" target-y="260.75"></path><g node-id="362"><path d="M 127.65 124.69 C 141.78 138.82 141.78 161.73 127.65 175.87 C 113.52 190.00 90.60 190.00 76.47 175.87 C 62.34 161.73 62.34 138.82 76.47 124.69 C 90.60 110.55 113.52 110.55 127.65 124.69 Z" fill="#ff9c39" fill-rule="nonzero" group-id="9" node-id="201" stroke="none" target-height="79.446556" target-width="79.446556" target-x="62.33805" target-y="110.55341"></path></g><path d="M 99.50 163.39 C 99.21 163.39 98.92 163.29 98.68 163.12 L 85.13 153.22 C 84.64 152.96 84.35 152.44 84.38 151.89 C 84.42 151.34 84.77 150.86 85.29 150.67 C 85.81 150.48 86.39 150.61 86.78 151.00 L 99.24 160.10 L 114.52 140.69 C 115.01 140.11 115.86 140.02 116.46 140.49 C 117.05 140.96 117.17 141.81 116.72 142.42 L 100.60 162.86 C 100.33 163.20 99.93 163.39 99.50 163.39 Z" fill="#ffffff" fill-rule="nonzero" node-id="204" stroke="none" target-height="23.372635" target-width="32.821472" target-x="84.34821" target-y="140.01982"></path><path d="M 210.22 210.82 L 204.86 209.88 C 204.23 207.54 203.30 205.30 202.09 203.20 L 205.21 198.75 C 206.36 197.11 206.17 194.88 204.75 193.47 L 201.54 190.27 C 200.11 188.88 197.89 188.72 196.27 189.89 L 191.81 193.00 C 189.72 191.79 187.48 190.86 185.14 190.24 L 184.22 184.76 C 183.88 182.81 182.20 181.37 180.22 181.35 L 175.60 181.35 C 173.59 181.34 171.87 182.78 171.53 184.76 L 170.59 190.10 C 168.26 190.73 166.01 191.66 163.92 192.87 L 159.48 189.87 C 157.84 188.72 155.62 188.92 154.21 190.33 L 151.00 193.56 C 149.58 194.97 149.39 197.20 150.54 198.83 L 153.66 203.29 C 152.45 205.38 151.52 207.62 150.90 209.96 L 145.55 210.90 C 143.57 211.24 142.13 212.96 142.14 214.97 L 142.14 219.51 C 142.14 221.51 143.58 223.23 145.55 223.57 L 150.90 224.51 C 151.52 226.85 152.45 229.09 153.66 231.18 L 150.54 235.64 C 149.39 237.27 149.58 239.50 151.00 240.91 L 154.21 244.12 C 155.62 245.54 157.85 245.73 159.48 244.58 L 163.94 241.46 C 166.03 242.67 168.27 243.60 170.61 244.22 L 171.55 249.57 C 171.90 251.54 173.61 252.98 175.61 252.98 L 180.22 252.98 C 182.22 252.98 183.94 251.54 184.28 249.57 L 185.22 244.22 C 187.56 243.60 189.80 242.67 191.90 241.46 L 196.25 244.46 C 197.88 245.61 200.11 245.42 201.52 244.00 L 204.73 240.79 C 206.15 239.38 206.34 237.15 205.19 235.52 L 202.07 231.03 C 203.28 228.93 204.21 226.69 204.84 224.35 L 210.20 223.42 C 212.17 223.07 213.61 221.35 213.61 219.35 L 213.61 214.81 C 213.59 212.84 212.16 211.16 210.22 210.82 Z M 177.89 229.39 C 172.93 229.39 168.46 226.41 166.56 221.83 C 164.66 217.25 165.70 211.97 169.21 208.46 C 172.71 204.96 177.99 203.91 182.57 205.80 C 187.15 207.70 190.14 212.17 190.14 217.13 L 190.14 217.20 C 190.10 223.94 184.63 229.38 177.89 229.39 Z" fill="#100c25" fill-rule="nonzero" node-id="206" stroke="none" target-height="71.648834" target-width="71.48137" target-x="142.13022" target-y="181.33606"></path><path d="M 362.38 869.77 C 362.40 882.05 372.35 891.99 384.63 892.00 L 825.69 892.00 C 837.98 891.99 847.94 882.03 847.94 869.74 L 847.94 471.70 L 362.38 471.70 Z" fill="#c3cfe2" fill-rule="nonzero" node-id="208" stroke="none" target-height="420.29996" target-width="485.56" target-x="362.38" target-y="471.70004"></path><path d="M 825.75 345.58 L 384.69 345.58 C 372.40 345.58 362.44 355.54 362.44 367.83 L 362.44 471.83 L 848.00 471.83 L 848.00 367.83 C 848.00 355.54 838.04 345.58 825.75 345.58 Z" fill="#c3cfe2" fill-rule="nonzero" node-id="210" stroke="none" target-height="126.25003" target-width="485.56" target-x="362.44" target-y="345.57996"></path><path d="M 327.46 869.77 C 327.48 882.05 337.43 891.99 349.71 892.00 L 790.76 892.00 C 803.03 891.99 812.98 882.04 813.00 869.77 L 813.00 471.70 L 327.46 471.70 Z" fill="#ffffff" fill-rule="nonzero" node-id="212" stroke="none" target-height="420.29996" target-width="485.54" target-x="327.46" target-y="471.70004"></path><path d="M 790.76 345.46 L 349.76 345.46 C 337.47 345.46 327.51 355.42 327.51 367.71 L 327.51 471.71 L 813.00 471.71 L 813.00 367.71 C 812.99 355.43 803.04 345.47 790.76 345.46 Z" fill="#5eadef" fill-rule="nonzero" node-id="214" stroke="none" target-height="126.25" target-width="485.49" target-x="327.51" target-y="345.46"></path><path d="M 487.89 411.64 C 487.89 425.75 476.45 437.19 462.34 437.19 C 448.23 437.19 436.79 425.75 436.79 411.64 C 436.79 397.53 448.23 386.09 462.34 386.09 C 476.45 386.09 487.89 397.53 487.89 411.64 Z" fill="#100c25" fill-rule="nonzero" node-id="216" stroke="none" target-height="51.099976" target-width="51.099976" target-x="436.79004" target-y="386.09003"></path><path d="M 456.94 398.00 L 456.94 398.00 C 449.60 398.00 443.66 392.06 443.65 384.72 L 443.65 329.12 C 443.65 322.70 447.98 316.79 454.29 315.57 C 458.19 314.78 462.25 315.79 465.33 318.30 C 468.42 320.82 470.22 324.59 470.23 328.57 L 470.23 345.43 L 492.72 345.43 L 492.72 329.83 C 492.72 310.83 478.38 294.14 459.39 292.83 C 449.50 292.16 439.78 295.62 432.53 302.39 C 425.29 309.15 421.17 318.62 421.16 328.53 L 421.16 383.45 C 421.16 402.11 434.96 418.51 453.55 420.23 C 455.50 420.41 457.46 420.43 459.42 420.30 C 473.58 419.30 472.42 397.89 458.21 397.89 Z" fill="#ffffff" fill-rule="nonzero" node-id="218" stroke="none" target-height="128.26819" target-width="71.56" target-x="421.16" target-y="292.16312"></path><path d="M 691.60 411.64 C 691.60 425.75 680.16 437.19 666.05 437.19 C 651.94 437.19 640.50 425.75 640.50 411.64 C 640.50 397.53 651.94 386.09 666.05 386.09 C 680.16 386.09 691.60 397.53 691.60 411.64 Z" fill="#100c25" fill-rule="nonzero" node-id="220" stroke="none" target-height="51.099976" target-width="51.100037" target-x="640.5" target-y="386.09003"></path><path d="M 660.66 398.00 L 660.66 398.00 C 653.32 398.00 647.38 392.06 647.37 384.72 L 647.37 329.12 C 647.37 322.70 651.70 316.79 658.01 315.57 C 661.91 314.79 665.96 315.79 669.05 318.31 C 672.13 320.82 673.93 324.59 673.94 328.57 L 673.94 345.43 L 696.44 345.43 L 696.44 329.83 C 696.44 310.83 682.10 294.14 663.11 292.83 C 653.22 292.16 643.50 295.62 636.25 302.39 C 629.01 309.15 624.89 318.62 624.88 328.53 L 624.88 383.45 C 624.88 402.11 638.68 418.51 657.27 420.23 C 659.22 420.41 661.18 420.43 663.13 420.30 C 677.30 419.30 676.13 397.89 661.93 397.89 Z" fill="#ffffff" fill-rule="nonzero" node-id="222" stroke="none" target-height="128.2681" target-width="71.56" target-x="624.88" target-y="292.16312"></path><path d="M 400.40 531.91 L 473.03 531.91 L 473.03 604.54 L 400.40 604.54 Z" fill="#ffdec2" fill-rule="nonzero" node-id="224" stroke="none" target-height="72.630005" target-width="72.630035" target-x="400.39996" target-y="531.91"></path><path d="M 400.40 638.84 L 473.03 638.84 L 473.03 711.47 L 400.40 711.47 Z" fill="#ffdec2" fill-rule="nonzero" node-id="226" stroke="none" target-height="72.630005" target-width="72.630035" target-x="400.39996" target-y="638.84"></path><path d="M 400.40 745.76 L 473.03 745.76 L 473.03 818.39 L 400.40 818.39 Z" fill="#ffdec2" fill-rule="nonzero" node-id="228" stroke="none" target-height="72.629944" target-width="72.630035" target-x="400.39996" target-y="745.76"></path><path d="M 523.63 531.91 L 596.26 531.91 L 596.26 604.54 L 523.63 604.54 Z" fill="#ff9c39" fill-rule="nonzero" node-id="230" stroke="none" target-height="72.630005" target-width="72.630005" target-x="523.63" target-y="531.91"></path><path d="M 523.63 638.84 L 596.26 638.84 L 596.26 711.47 L 523.63 711.47 Z" fill="#ffdec2" fill-rule="nonzero" node-id="232" stroke="none" target-height="72.630005" target-width="72.630005" target-x="523.63" target-y="638.84"></path><path d="M 523.63 745.76 L 596.26 745.76 L 596.26 818.39 L 523.63 818.39 Z" fill="#ffdec2" fill-rule="nonzero" node-id="234" stroke="none" target-height="72.629944" target-width="72.630005" target-x="523.63" target-y="745.76"></path><path d="M 646.86 531.91 L 719.49 531.91 L 719.49 604.54 L 646.86 604.54 Z" fill="#ff9c39" fill-rule="nonzero" node-id="236" stroke="none" target-height="72.630005" target-width="72.630005" target-x="646.86" target-y="531.91"></path><path d="M 646.86 638.84 L 719.49 638.84 L 719.49 711.47 L 646.86 711.47 Z" fill="#ff9c39" fill-rule="nonzero" node-id="238" stroke="none" target-height="72.630005" target-width="72.630005" target-x="646.86" target-y="638.84"></path><path d="M 646.86 745.76 L 719.49 745.76 L 719.49 818.39 L 646.86 818.39 Z" fill="#ffdec2" fill-rule="nonzero" node-id="240" stroke="none" target-height="72.629944" target-width="72.630005" target-x="646.86" target-y="745.76"></path><path d="M 257.60 544.66 L 306.62 544.66 L 306.62 576.94 L 257.60 576.94 Z" fill="#6276b5" fill-rule="nonzero" node-id="242" stroke="none" target-height="32.27997" target-width="49.01999" target-x="257.6" target-y="544.66"></path><path d="M 236.83 533.35 L 327.40 533.35 L 327.40 553.04 L 236.83 553.04 Z" fill="#253369" fill-rule="nonzero" node-id="244" stroke="none" target-height="19.690002" target-width="90.56999" target-x="236.83" target-y="533.35"></path><g node-id="363"><path d="M 397.01 613.26 C 460.78 677.03 460.78 780.43 397.01 844.20 C 333.24 907.97 229.84 907.97 166.07 844.20 C 102.30 780.43 102.30 677.03 166.07 613.26 C 229.84 549.49 333.24 549.49 397.01 613.26 Z" fill="#253369" fill-rule="nonzero" group-id="10" node-id="248" stroke="none" target-height="358.48633" target-width="358.4864" target-x="102.29562" target-y="549.4879"></path></g><g node-id="364"><path d="M 376.37 633.90 C 428.74 686.27 428.74 771.19 376.37 823.56 C 324.00 875.93 239.08 875.93 186.71 823.56 C 134.34 771.19 134.34 686.27 186.71 633.90 C 239.08 581.53 324.00 581.53 376.37 633.90 Z" fill="#ffffff" fill-rule="nonzero" group-id="11" node-id="253" stroke="none" target-height="294.40668" target-width="294.40662" target-x="134.33554" target-y="581.5278"></path></g><path d="M 205.78 656.49 C 204.89 656.49 204.03 656.13 203.40 655.49 L 197.79 649.88 C 196.57 648.54 196.62 646.49 197.90 645.21 C 199.18 643.94 201.24 643.89 202.57 645.11 L 208.17 650.71 C 209.14 651.67 209.43 653.13 208.91 654.39 C 208.38 655.65 207.15 656.48 205.78 656.47 Z" fill="#f2c8aa" fill-rule="nonzero" node-id="256" stroke="none" target-height="12.598694" target-width="12.856857" target-x="196.57407" target-y="643.8913"></path><path d="M 364.23 814.94 C 363.33 814.94 362.47 814.58 361.84 813.94 L 356.24 808.34 C 354.92 807.02 354.92 804.89 356.24 803.57 C 357.56 802.25 359.69 802.25 361.01 803.57 L 366.62 809.17 C 367.58 810.14 367.86 811.59 367.34 812.85 C 366.82 814.10 365.59 814.93 364.23 814.93 Z" fill="#f2c8aa" fill-rule="nonzero" node-id="258" stroke="none" target-height="12.687195" target-width="12.941376" target-x="354.9228" target-y="802.2528"></path><path d="M 200.18 814.94 C 198.82 814.94 197.59 814.11 197.07 812.86 C 196.55 811.60 196.83 810.15 197.79 809.18 L 203.40 803.58 C 204.72 802.26 206.85 802.26 208.17 803.58 C 209.49 804.90 209.49 807.03 208.17 808.35 L 202.57 813.95 C 201.94 814.58 201.08 814.94 200.18 814.94 Z" fill="#f2c8aa" fill-rule="nonzero" node-id="260" stroke="none" target-height="12.677185" target-width="12.941391" target-x="196.5458" target-y="802.2628"></path><path d="M 358.63 656.49 C 357.26 656.50 356.03 655.67 355.50 654.41 C 354.98 653.15 355.27 651.69 356.24 650.73 L 361.84 645.13 C 362.68 644.21 363.95 643.82 365.16 644.13 C 366.37 644.43 367.31 645.37 367.62 646.58 C 367.92 647.78 367.54 649.06 366.62 649.90 L 361.00 655.51 C 360.37 656.13 359.52 656.49 358.63 656.49 Z" fill="#f2c8aa" fill-rule="nonzero" node-id="262" stroke="none" target-height="12.671692" target-width="12.942413" target-x="354.9791" target-y="643.82404"></path><path d="M 289.81 616.45 C 289.81 620.71 286.35 624.17 282.09 624.17 C 277.83 624.17 274.37 620.71 274.37 616.45 C 274.37 612.19 277.83 608.73 282.09 608.73 C 286.35 608.73 289.81 612.19 289.81 616.45 Z" fill="#100c25" fill-rule="nonzero" node-id="264" stroke="none" target-height="15.439941" target-width="15.440002" target-x="274.37" target-y="608.73004"></path><path d="M 289.81 841.09 C 289.81 845.35 286.35 848.81 282.09 848.81 C 277.83 848.81 274.37 845.35 274.37 841.09 C 274.37 836.83 277.83 833.37 282.09 833.37 C 286.35 833.37 289.81 836.83 289.81 841.09 Z" fill="#100c25" fill-rule="nonzero" node-id="266" stroke="none" target-height="15.439941" target-width="15.440002" target-x="274.37" target-y="833.37006"></path><path d="M 169.77 721.05 C 174.03 721.05 177.49 724.51 177.49 728.77 C 177.49 733.03 174.03 736.49 169.77 736.49 C 165.51 736.49 162.05 733.03 162.05 728.77 C 162.05 724.51 165.51 721.05 169.77 721.05 Z" fill="#100c25" fill-rule="nonzero" node-id="268" stroke="none" target-height="15.440002" target-width="15.440002" target-x="162.05" target-y="721.05"></path><path d="M 394.41 721.05 C 398.67 721.05 402.13 724.51 402.13 728.77 C 402.13 733.03 398.67 736.49 394.41 736.49 C 390.15 736.49 386.69 733.03 386.69 728.77 C 386.69 726.72 387.50 724.76 388.95 723.31 C 390.40 721.86 392.36 721.05 394.41 721.05 Z" fill="#100c25" fill-rule="nonzero" node-id="270" stroke="none" target-height="15.442627" target-width="15.442657" target-x="386.68735" target-y="721.04736"></path><path d="M 330.07 659.17 L 275.00 723.77 C 272.49 726.33 271.81 730.16 273.30 733.42 C 274.78 736.68 278.12 738.69 281.69 738.48 C 285.26 738.27 288.34 735.88 289.43 732.47 L 332.00 660.54 C 332.30 660.01 332.15 659.34 331.65 658.99 C 331.15 658.63 330.47 658.71 330.07 659.17 Z" fill="#ff9c39" fill-rule="nonzero" node-id="272" stroke="none" target-height="80.05792" target-width="60.483612" target-x="271.81464" target-y="658.6342"></path><path d="M 905.50 863.00 C 905.50 863.00 902.76 877.19 889.50 878.00 C 876.24 878.81 879.09 889.38 879.09 889.38 L 929.87 889.38 L 929.87 864.00 Z" fill="#367cff" fill-rule="nonzero" node-id="274" stroke="none" target-height="26.380066" target-width="53.630005" target-x="876.24" target-y="863"></path><path d="M 933.29 604.09 C 933.29 604.09 933.13 599.82 933.16 609.50 C 933.29 645.60 932.09 872.04 932.09 872.04 L 898.72 871.76 L 878.50 602.62 L 933.29 604.09 Z" fill="#262626" fill-rule="nonzero" node-id="276" stroke="none" target-height="272.21997" target-width="54.789978" target-x="878.5" target-y="599.82"></path><path d="M 848.52 863.00 C 848.52 863.00 845.78 877.19 832.52 878.00 C 819.26 878.81 822.11 889.38 822.11 889.38 L 872.89 889.38 L 872.89 864.00 Z" fill="#367cff" fill-rule="nonzero" node-id="278" stroke="none" target-height="26.380066" target-width="53.629944" target-x="819.2601" target-y="863"></path><path d="M 842.06 606.89 C 842.06 606.89 837.89 730.27 838.33 736.30 L 842.25 871.11 L 875.06 871.72 L 880.36 731.43 C 880.36 731.43 883.82 692.73 893.18 656.79 C 897.96 638.35 900.83 619.47 901.77 600.44 L 901.77 600.44 L 842.06 606.89 Z" fill="#262626" fill-rule="nonzero" node-id="280" stroke="none" target-height="271.27997" target-width="63.879944" target-x="837.8901" target-y="600.44"></path><path d="M 885.36 694.37 L 882.62 652.52 C 882.62 652.52 879.81 669.92 879.81 684.91 C 879.81 692.24 881.32 721.26 881.32 721.26 Z" fill="#0a0a0a" fill-rule="nonzero" node-id="282" stroke="none" target-height="68.73993" target-width="5.549988" target-x="879.81" target-y="652.52"></path><path d="M 933.65 604.09 L 933.76 604.09 C 933.76 604.09 933.68 602.00 933.65 604.09 Z" fill="#333333" fill-rule="nonzero" node-id="284" stroke="none" target-height="2.0900269" target-width="0.11004639" target-x="933.65" target-y="602"></path><path d="M 933.51 604.09 L 933.62 604.09 C 933.62 604.09 933.54 602.00 933.51 604.09 Z" fill="#333333" fill-rule="nonzero" node-id="286" stroke="none" target-height="2.0900269" target-width="0.10992432" target-x="933.51" target-y="602"></path><path d="M 750.66 504.00 C 751.07 503.18 751.95 502.71 752.86 502.83 C 752.85 502.79 752.85 502.76 752.86 502.72 C 752.90 502.66 752.97 502.64 753.04 502.65 L 751.54 501.58 C 750.62 500.95 750.30 499.73 750.80 498.73 C 751.32 497.75 752.50 497.31 753.53 497.73 C 753.53 497.73 753.53 497.73 753.53 497.67 L 752.92 497.23 C 752.06 496.63 751.73 495.51 752.14 494.54 C 752.41 493.95 752.93 493.51 753.55 493.35 C 754.18 493.18 754.84 493.30 755.37 493.68 L 756.79 494.68 L 756.79 494.68 L 756.79 494.68 C 756.12 493.93 756.06 492.82 756.65 492.00 C 757.32 490.92 758.86 491.14 759.77 491.80 L 768.10 497.55 L 766.68 495.00 C 766.06 494.00 766.32 492.69 767.27 492.00 C 767.76 491.67 768.37 491.56 768.95 491.69 C 769.53 491.82 770.02 492.18 770.33 492.69 L 778.46 506.38 C 780.44 509.72 779.41 514.02 776.13 516.10 L 776.13 516.10 C 772.39 518.47 767.58 518.33 763.98 515.75 L 751.40 506.75 C 750.55 506.11 750.24 504.96 750.66 503.98 Z" fill="#ff9e85" fill-rule="nonzero" node-id="288" stroke="none" target-height="27.550201" target-width="30.199707" target-x="750.2421" target-y="490.92"></path><g node-id="365"><path d="M 765.07 500.35 C 764.99 500.43 764.87 500.43 764.79 500.35 L 756.88 494.87 C 756.79 494.81 756.77 494.68 756.83 494.59 C 756.89 494.50 757.02 494.48 757.11 494.54 L 765.02 500.02 C 765.11 500.09 765.13 500.21 765.07 500.30 Z" fill="#0c0c0c" fill-opacity="0.25" fill-rule="nonzero" group-id="12" node-id="292" stroke="none" target-height="5.949707" target-width="8.362244" target-x="756.7665" target-y="494.4765"></path></g><g node-id="366"><path d="M 762.75 503.91 C 762.67 503.99 762.55 503.99 762.47 503.91 L 753.64 497.79 C 753.56 497.71 753.56 497.59 753.64 497.51 C 753.71 497.43 753.83 497.41 753.92 497.46 L 762.75 503.58 C 762.83 503.66 762.83 503.78 762.75 503.86 Z" fill="#0c0c0c" fill-opacity="0.25" fill-rule="nonzero" group-id="13" node-id="297" stroke="none" target-height="6.5802" target-width="9.262451" target-x="753.5638" target-y="497.406"></path></g><g node-id="367"><path d="M 760.26 507.78 C 760.18 507.86 760.06 507.86 759.98 507.78 L 752.98 502.91 C 752.89 502.84 752.87 502.72 752.93 502.63 C 752.96 502.59 753.01 502.56 753.06 502.55 C 753.11 502.54 753.17 502.55 753.21 502.58 L 760.21 507.46 C 760.25 507.50 760.27 507.54 760.27 507.60 C 760.27 507.65 760.25 507.69 760.21 507.73 Z" fill="#0c0c0c" fill-opacity="0.25" fill-rule="nonzero" group-id="14" node-id="302" stroke="none" target-height="5.3190613" target-width="7.3949585" target-x="752.8713" target-y="502.53717"></path></g><path d="M 783.25 503.24 L 807.12 543.89 L 836.25 505.69 L 860.43 527.50 L 819.13 581.00 L 818.86 581.38 C 815.51 586.01 810.00 588.57 804.30 588.17 C 798.60 587.76 793.52 584.44 790.86 579.38 L 757.00 517.86 L 783.29 503.24 Z" fill="#367cff" fill-rule="nonzero" node-id="305" stroke="none" target-height="85.334564" target-width="103.42999" target-x="757" target-y="503.24002"></path><path d="M 809.46 548.78 C 809.51 548.79 809.55 548.79 809.60 548.78 C 809.67 548.75 809.73 548.68 809.75 548.61 C 809.78 548.53 809.77 548.45 809.73 548.38 L 807.39 543.79 C 807.35 543.72 807.29 543.66 807.21 543.64 C 807.14 543.61 807.05 543.62 806.98 543.66 C 806.84 543.74 806.78 543.92 806.85 544.07 L 809.19 548.65 C 809.24 548.75 809.35 548.82 809.46 548.82 Z" fill="#0c0c0c" fill-rule="nonzero" node-id="307" stroke="none" target-height="5.2060547" target-width="2.9941406" target-x="806.7813" target-y="543.61395"></path><path d="M 915.26 452.74 C 915.26 452.74 916.38 470.14 919.67 475.31 C 929.14 490.20 932.03 501.92 922.82 510.84 C 913.61 519.76 854.24 520.57 849.51 500.35 C 845.51 483.35 853.63 481.41 855.44 467.35 C 856.26 460.97 858.57 447.59 858.57 447.59" fill="#0a0a0a" fill-rule="nonzero" node-id="309" stroke="none" target-height="72.98001" target-width="86.52002" target-x="845.51" target-y="447.59"></path><g node-id="368"><path d="M 864.62 497.12 C 864.72 497.12 865.86 515.98 887.79 514.34 C 902.97 513.20 908.38 497.09 908.73 497.09 C 906.99 496.81 905.28 496.39 903.61 495.85 C 901.22 494.57 898.26 493.23 897.49 488.59 C 897.05 485.92 897.80 472.23 897.57 469.52 L 874.27 474.72 C 874.59 480.44 876.87 493.72 868.88 496.04 C 867.56 496.43 866.12 496.78 864.62 497.12 Z" fill="#ff9e85" fill-rule="nonzero" group-id="15" node-id="312" stroke="none" target-height="46.45999" target-width="44.109985" target-x="864.62" target-y="469.52"></path></g><g node-id="369"><path d="M 873.94 490.62 C 874.31 489.45 874.54 488.24 874.64 487.01 C 874.90 484.21 874.85 481.38 874.49 478.59 C 879.22 477.97 883.68 476.03 887.37 473.00 C 887.80 474.60 890.53 480.50 889.87 482.00 C 888.62 484.87 882.42 490.65 873.94 490.65 Z" fill="#0c0c0c" fill-opacity="0.22" fill-rule="nonzero" group-id="16" node-id="316" stroke="none" target-height="17.650024" target-width="16.590027" target-x="873.94" target-y="473"></path></g><path d="M 877.00 484.68 C 886.19 485.47 896.05 481.68 898.37 469.39 L 902.45 458.33 C 904.77 446.07 900.21 434.91 888.67 432.72 L 888.67 432.72 C 877.12 430.54 867.85 434.35 865.53 446.62 C 865.53 446.62 864.10 453.62 863.88 456.00 C 863.04 464.95 863.04 483.49 877.00 484.68 Z" fill="#ff9e85" fill-rule="nonzero" node-id="319" stroke="none" target-height="54.929993" target-width="41.73004" target-x="863.04" target-y="430.54"></path><path d="M 911.72 462.18 L 898.72 465.77 C 890.88 462.60 891.16 443.55 891.16 443.55 C 891.16 443.55 881.64 452.83 858.57 447.55 C 858.57 447.55 863.19 416.40 897.28 425.75 C 908.28 428.75 916.16 440.87 915.17 455.67 C 914.49 466.04 911.72 462.18 911.72 462.18 Z" fill="#0a0a0a" fill-rule="nonzero" node-id="321" stroke="none" target-height="49.640045" target-width="57.589905" target-x="858.57" target-y="416.39996"></path><path d="M 899.00 473.00 C 902.51 473.67 906.12 472.42 907.11 467.13 C 907.76 463.62 904.91 460.96 901.41 460.30 L 899.15 462.30 L 896.00 472.42 Z" fill="#ff9e85" fill-rule="nonzero" node-id="323" stroke="none" target-height="13.370026" target-width="11.76001" target-x="896" target-y="460.3"></path><path d="M 896.89 455.61 C 896.89 456.69 894.19 460.55 894.56 461.56 C 895.16 463.15 897.63 465.71 898.72 465.77 C 900.63 465.87 898.97 462.50 901.30 460.65 C 901.68 460.61 902.07 460.61 902.45 460.65 C 903.94 460.83 905.31 461.57 906.26 462.73 L 906.10 457.85" fill="#0a0a0a" fill-rule="nonzero" node-id="325" stroke="none" target-height="10.26001" target-width="12.070007" target-x="894.19" target-y="455.61"></path><path d="M 837.23 538.41 C 837.92 546.50 841.23 596.94 841.93 606.89 L 933.11 606.89 C 933.63 597.89 935.94 558.64 937.89 541.07 C 939.76 524.31 943.42 515.92 940.74 510.97 C 936.35 502.87 924.38 498.19 916.22 497.09 C 911.22 496.41 903.73 495.93 903.73 495.93 C 903.73 495.93 903.10 508.77 887.96 509.49 C 867.35 510.49 868.72 495.93 868.62 495.93 C 865.28 495.93 846.21 498.04 841.54 500.81 C 828.83 508.34 835.77 521.28 837.23 538.41 Z" fill="#367cff" fill-rule="nonzero" node-id="327" stroke="none" target-height="110.96002" target-width="114.589966" target-x="828.83" target-y="495.93"></path><path d="M 836.50 578.10 C 836.56 577.19 837.19 576.42 838.07 576.17 C 838.06 576.13 838.06 576.09 838.07 576.05 C 838.09 575.99 838.14 575.94 838.21 575.92 L 836.42 575.52 C 835.32 575.31 834.55 574.31 834.62 573.19 C 834.70 572.07 835.63 571.20 836.75 571.19 C 836.75 571.19 836.75 571.19 836.75 571.13 L 836.00 571.00 C 834.97 570.79 834.23 569.88 834.23 568.83 C 834.25 568.18 834.55 567.58 835.06 567.18 C 835.57 566.77 836.23 566.62 836.86 566.76 L 838.56 567.14 L 838.56 567.14 C 838.56 567.14 838.56 567.14 838.56 567.14 C 837.65 566.71 837.16 565.71 837.37 564.72 C 837.57 563.47 839.07 563.07 840.17 563.31 L 850.09 565.31 L 847.73 563.59 C 846.76 562.91 846.49 561.60 847.10 560.59 C 847.42 560.10 847.94 559.76 848.52 559.65 C 849.10 559.54 849.70 559.67 850.18 560.02 L 863.03 569.42 C 866.16 571.71 866.90 576.08 864.70 579.27 L 864.70 579.27 C 862.19 582.92 857.72 584.68 853.40 583.72 L 838.29 580.37 C 837.25 580.12 836.51 579.18 836.52 578.11 Z" fill="#ff9e85" fill-rule="nonzero" node-id="329" stroke="none" target-height="25.137634" target-width="32.6745" target-x="834.2299" target-y="559.5406"></path><g node-id="370"><path d="M 848.34 569.14 C 848.32 569.25 848.21 569.32 848.10 569.30 L 838.68 567.36 C 838.60 567.35 838.54 567.30 838.51 567.23 C 838.49 567.16 838.50 567.08 838.56 567.02 C 838.61 566.97 838.69 566.95 838.76 566.97 L 848.18 568.90 C 848.29 568.92 848.36 569.03 848.34 569.14 Z" fill="#0c0c0c" fill-opacity="0.25" fill-rule="nonzero" group-id="17" node-id="333" stroke="none" target-height="2.3711548" target-width="9.871643" target-x="838.48706" target-y="566.9476"></path></g><g node-id="371"><path d="M 847.60 573.33 C 847.58 573.43 847.47 573.50 847.37 573.48 L 836.84 571.32 C 836.74 571.29 836.67 571.19 836.69 571.08 C 836.72 570.98 836.82 570.92 836.92 570.93 L 847.45 573.09 C 847.55 573.11 847.62 573.22 847.60 573.32 Z" fill="#0c0c0c" fill-opacity="0.25" fill-rule="nonzero" group-id="18" node-id="338" stroke="none" target-height="2.5828247" target-width="10.948364" target-x="836.67053" target-y="570.916"></path></g><g node-id="372"><path d="M 846.83 577.86 C 846.82 577.91 846.79 577.96 846.74 577.98 C 846.70 578.01 846.64 578.02 846.59 578.01 L 838.20 576.29 C 838.09 576.27 838.02 576.16 838.04 576.05 C 838.07 575.95 838.17 575.88 838.28 575.90 L 846.67 577.62 C 846.78 577.64 846.85 577.75 846.83 577.86 Z" fill="#0c0c0c" fill-opacity="0.25" fill-rule="nonzero" group-id="19" node-id="343" stroke="none" target-height="2.1414795" target-width="8.827576" target-x="838.0212" target-y="575.8805"></path></g><g node-id="373"><path d="M 854.31 589.69 L 936.31 604.50 C 936.91 604.57 937.52 604.60 938.12 604.60 C 943.02 604.60 947.66 602.44 950.83 598.70 C 953.99 594.96 955.34 590.02 954.53 585.19 L 943.00 517.00 C 941.47 507.93 932.88 501.82 923.82 503.35 C 914.75 504.87 908.63 513.46 910.16 522.53 L 918.00 569.46 L 857.91 561.92 L 854.31 589.69 Z" fill="#619eff" fill-rule="nonzero" group-id="20" node-id="347" stroke="none" target-height="102.78363" target-width="101.03168" target-x="854.31" target-y="501.81793"></path></g><path d="M 837.33 543.67 L 837.94 543.63 L 838.67 556.47 L 838.06 556.50 Z" fill="#0c0c0c" fill-rule="nonzero" group-id="21" node-id="352" stroke="none" target-height="12.87384" target-width="1.3380737" target-x="837.3349" target-y="543.6306"></path></svg>