<?xml version="1.0" standalone="no"?><!DOCTYPE svg PUBLIC "-//W3C//DTD SVG 1.1//EN" "http://www.w3.org/Graphics/SVG/1.1/DTD/svg11.dtd"><svg height="1024" node-id="1" sillyvg="true" template-height="1024" template-width="1024" version="1.1" viewBox="0 0 1024 1024" width="1024" xmlns="http://www.w3.org/2000/svg" xmlns:xlink="http://www.w3.org/1999/xlink"><defs node-id="80"></defs><g node-id="234"><path d="M 880.01 907.72 C 880.01 918.21 839.49 928.27 767.37 935.69 C 695.26 943.10 597.44 947.27 495.45 947.27 C 393.46 947.27 295.64 943.10 223.53 935.69 C 151.41 928.27 110.89 918.21 110.89 907.72 C 110.89 897.23 151.41 887.17 223.53 879.75 C 295.64 872.34 393.46 868.17 495.45 868.17 C 597.44 868.17 695.26 872.34 767.37 879.75 C 839.49 887.17 880.01 897.23 880.01 907.72 Z" fill="#d7e4f9" fill-rule="nonzero" group-id="1" node-id="85" stroke="none" target-height="79.099976" target-width="769.12" target-x="110.890015" target-y="868.17"></path><path d="M 968.47 578.50 C 968.47 715.46 857.44 826.49 720.48 826.49 C 583.52 826.49 472.49 715.46 472.49 578.50 C 472.49 441.54 583.52 330.51 720.48 330.51 C 857.44 330.51 968.47 441.54 968.47 578.50 Z" fill="#ecf3fe" fill-rule="nonzero" group-id="1" node-id="87" stroke="none" target-height="495.97998" target-width="495.97998" target-x="472.49" target-y="330.51"></path><path d="M 698.49 675.49 L 698.49 775.00 L 913.15 775.00 C 925.66 774.94 937.57 769.65 946.00 760.42 C 954.83 750.85 959.70 738.27 959.61 725.25 C 959.61 720.36 958.94 715.50 957.61 710.79 C 957.48 710.32 957.33 709.85 957.18 709.38 C 951.00 689.68 933.62 675.49 913.18 675.49 Z" fill="#ecf3fe" fill-rule="nonzero" group-id="1" node-id="89" stroke="none" target-height="99.51001" target-width="261.20508" target-x="698.49" target-y="675.49"></path><g node-id="235"><path d="M 754.23 675.49 L 957.18 709.38 C 951.00 689.68 933.62 675.49 913.18 675.49 Z" fill="#003889" fill-opacity="0.2" fill-rule="nonzero" group-id="1,2" node-id="93" stroke="none" target-height="33.890015" target-width="202.95001" target-x="754.23" target-y="675.49"></path></g><path d="M 796.00 725.25 C 796.08 738.28 791.22 750.85 782.40 760.43 C 773.96 769.65 762.07 774.93 749.57 775.00 L 541.49 775.00 C 537.75 774.86 534.81 771.74 534.91 768.00 L 534.91 768.00 C 534.79 764.24 537.73 761.09 541.49 760.95 L 548.07 760.95 L 548.07 689.59 L 541.49 689.59 C 537.73 689.45 534.79 686.30 534.91 682.54 L 534.91 682.54 C 534.81 678.80 537.75 675.68 541.49 675.54 L 749.57 675.54 C 775.22 675.49 796.00 697.77 796.00 725.25 Z" fill="#c4d7f2" fill-rule="nonzero" group-id="1" node-id="96" stroke="none" target-height="99.51001" target-width="261.29608" target-x="534.7863" target-y="675.49"></path><path d="M 548.07 760.90 L 548.07 689.59 L 749.57 689.59 C 767.93 689.59 782.86 705.59 782.86 725.25 C 782.86 744.91 767.93 760.90 749.57 760.90 Z" fill="#ffffff" fill-rule="nonzero" group-id="1" node-id="98" stroke="none" target-height="71.30994" target-width="234.78998" target-x="548.07" target-y="689.59"></path><path d="M 775.00 748.25 C 777.19 743.49 778.32 738.32 778.31 733.08 C 778.31 714.18 763.96 698.81 746.31 698.81 L 548.07 698.81 L 548.07 689.59 L 749.57 689.59 C 767.92 689.59 782.86 705.59 782.86 725.25 C 782.90 733.58 780.14 741.69 775.00 748.25 Z" fill="#acc6e5" fill-rule="nonzero" group-id="1" node-id="100" stroke="none" target-height="58.659973" target-width="234.83478" target-x="548.07" target-y="689.59"></path><path d="M 548.08 708.46 L 569.93 710.33 L 548.08 712.03 L 548.08 708.46 Z" fill="#36588e" fill-rule="nonzero" group-id="1" node-id="102" stroke="none" target-height="3.5700073" target-width="21.849976" target-x="548.08" target-y="708.46"></path><path d="M 548.08 734.77 L 591.12 737.03 L 548.08 738.91 L 548.08 734.77 Z" fill="#36588e" fill-rule="nonzero" group-id="1" node-id="104" stroke="none" target-height="4.1398926" target-width="43.039978" target-x="548.08" target-y="734.7701"></path><path d="M 625.47 745.21 L 616.74 735.99 L 608.01 745.21 L 608.01 718.92 L 625.47 718.92 L 625.47 745.21 Z" fill="#36588e" fill-rule="nonzero" group-id="1" node-id="106" stroke="none" target-height="26.29004" target-width="17.45996" target-x="608.01" target-y="718.92"></path><path d="M 931.24 625.74 C 931.33 638.77 926.46 651.34 917.63 660.92 C 909.20 670.15 897.29 675.43 884.79 675.49 L 670.13 675.49 L 670.13 576.00 L 884.79 576.00 C 905.79 576.00 923.46 590.87 929.25 611.30 C 930.57 616.00 931.24 620.86 931.24 625.74 Z" fill="#3b82f4" fill-rule="nonzero" group-id="1" node-id="108" stroke="none" target-height="99.48999" target-width="261.19568" target-x="670.13" target-y="576"></path><path d="M 767.66 625.74 C 767.75 638.77 762.88 651.34 754.05 660.92 C 745.62 670.15 733.71 675.43 721.21 675.49 L 513.13 675.49 C 509.39 675.35 506.45 672.23 506.55 668.49 L 506.55 668.49 C 506.45 664.75 509.39 661.62 513.13 661.49 L 519.71 661.49 L 519.71 590.09 L 513.13 590.09 C 509.37 589.95 506.43 586.80 506.55 583.04 L 506.55 583.04 C 506.45 579.30 509.39 576.18 513.13 576.04 L 721.21 576.04 C 746.86 576.00 767.66 598.27 767.66 625.74 Z" fill="#1a71d8" fill-rule="nonzero" group-id="1" node-id="110" stroke="none" target-height="99.48999" target-width="261.31934" target-x="506.42633" target-y="576"></path><path d="M 519.71 661.40 L 519.71 590.09 L 721.21 590.09 C 739.56 590.09 754.50 606.09 754.50 625.74 C 754.50 645.39 739.56 661.40 721.21 661.40 Z" fill="#ffffff" fill-rule="nonzero" group-id="1" node-id="112" stroke="none" target-height="71.31" target-width="234.78998" target-x="519.71" target-y="590.09"></path><g node-id="236"><path d="M 746.62 648.75 C 748.81 643.99 749.94 638.81 749.93 633.57 C 749.93 614.68 735.57 599.31 717.93 599.31 L 519.71 599.31 L 519.71 590.09 L 721.21 590.09 C 739.56 590.09 754.50 606.09 754.50 625.74 C 754.54 634.08 751.76 642.19 746.62 648.75 Z" fill="#003889" fill-opacity="0.2" fill-rule="nonzero" group-id="1,3" node-id="116" stroke="none" target-height="58.659973" target-width="234.83124" target-x="519.71" target-y="590.09"></path></g><path d="M 519.71 608.95 L 541.56 610.83 L 519.71 612.52 L 519.71 608.95 Z" fill="#36588e" fill-rule="nonzero" group-id="1" node-id="119" stroke="none" target-height="3.5700073" target-width="21.849976" target-x="519.71" target-y="608.95"></path><path d="M 519.71 635.27 L 562.75 637.52 L 519.71 639.40 L 519.71 635.27 Z" fill="#36588e" fill-rule="nonzero" group-id="1" node-id="121" stroke="none" target-height="4.130005" target-width="43.039978" target-x="519.71" target-y="635.27"></path><path d="M 534.91 826.79 C 534.82 840.35 539.88 853.44 549.07 863.41 C 557.86 873.01 570.25 878.51 583.27 878.58 L 806.72 878.58 L 806.72 775.00 L 583.27 775.00 C 581.70 775.00 580.14 775.08 578.58 775.24 C 560.39 777.11 545.15 789.77 538.49 807.18 C 538.31 807.66 538.13 808.18 537.96 808.65 C 535.93 814.48 534.90 820.62 534.91 826.79 Z" fill="#3a3a77" fill-rule="nonzero" group-id="1" node-id="123" stroke="none" target-height="103.58087" target-width="271.89746" target-x="534.8225" target-y="774.99915"></path><g node-id="237"><path d="M 538.00 808.65 L 741.47 782.00 L 757.30 775.00 L 583.30 775.00 C 581.73 775.00 580.17 775.08 578.61 775.24 C 560.42 777.11 545.18 789.77 538.52 807.18 C 538.31 807.66 538.13 808.15 538.00 808.65 Z" fill="#003889" fill-opacity="0.2" fill-rule="nonzero" group-id="1,4" node-id="127" stroke="none" target-height="33.65088" target-width="219.30005" target-x="538" target-y="774.99915"></path></g><path d="M 705.19 826.79 C 705.10 840.35 710.16 853.44 719.35 863.41 C 728.14 873.01 740.53 878.51 753.55 878.58 L 970.15 878.58 C 974.07 878.44 977.13 875.16 977.00 871.24 L 977.00 871.24 C 977.13 867.32 974.07 864.04 970.15 863.90 L 963.30 863.90 L 963.30 789.67 L 970.15 789.67 C 974.06 789.53 977.13 786.25 977.00 782.34 L 977.00 782.34 C 977.13 778.42 974.07 775.14 970.15 775.00 L 753.55 775.00 C 726.84 775.00 705.19 798.19 705.19 826.79 Z" fill="#3a3a77" fill-rule="nonzero" group-id="1" node-id="130" stroke="none" target-height="103.58002" target-width="272.02783" target-x="705.1015" target-y="775"></path><path d="M 963.30 863.90 L 963.30 789.67 L 753.55 789.67 C 734.44 789.67 718.89 806.32 718.89 826.79 C 718.89 847.26 734.44 863.90 753.55 863.90 Z" fill="#ffffff" fill-rule="nonzero" group-id="1" node-id="132" stroke="none" target-height="74.2301" target-width="244.40997" target-x="718.89" target-y="789.67"></path><g node-id="238"><path d="M 727.10 850.74 C 724.81 845.79 723.64 840.39 723.65 834.94 C 723.65 815.27 738.59 799.27 756.95 799.27 L 963.30 799.27 L 963.30 789.67 L 753.55 789.67 C 734.44 789.67 718.89 806.32 718.89 826.79 C 718.85 835.47 721.74 843.91 727.10 850.74 Z" fill="#003889" fill-opacity="0.2" fill-rule="nonzero" group-id="1,5" node-id="136" stroke="none" target-height="61.070007" target-width="244.45007" target-x="718.8499" target-y="789.67"></path></g><path d="M 963.30 809.31 L 940.55 811.27 L 963.30 813.03 L 963.30 809.31 Z" fill="#36588e" fill-rule="nonzero" group-id="1" node-id="139" stroke="none" target-height="3.7200928" target-width="22.75" target-x="940.55" target-y="809.30994"></path><path d="M 963.30 836.70 L 918.49 839.05 L 963.30 841.01 L 963.30 836.70 Z" fill="#36588e" fill-rule="nonzero" group-id="1" node-id="141" stroke="none" target-height="4.3099365" target-width="44.809998" target-x="918.49" target-y="836.7"></path><path d="M 891.47 852.35 L 879.71 839.94 L 867.95 852.35 L 867.95 816.95 L 891.47 816.95 L 891.47 852.35 Z" fill="#33da82" fill-rule="nonzero" group-id="1" node-id="143" stroke="none" target-height="35.399963" target-width="23.519958" target-x="867.95" target-y="816.95"></path><g node-id="239"><path d="M 886.29 465.31 C 886.29 525.31 837.65 573.95 777.65 573.95 C 717.65 573.95 669.01 525.31 669.01 465.31 C 669.01 405.31 717.65 356.67 777.65 356.67 C 837.65 356.67 886.29 405.31 886.29 465.31 Z" fill="#003889" fill-opacity="0.2" fill-rule="nonzero" group-id="1,6" node-id="147" stroke="none" target-height="217.28003" target-width="217.28003" target-x="669.01" target-y="356.66998"></path></g><path d="M 922.30 517.07 C 922.30 522.35 920.20 527.40 916.47 531.13 C 912.74 534.86 907.69 536.96 902.41 536.96 C 897.13 536.96 892.08 534.86 888.35 531.13 C 884.62 527.40 882.52 522.35 882.52 517.07 C 882.52 511.79 884.62 506.74 888.35 503.01 C 892.08 499.28 897.13 497.18 902.41 497.18 C 907.69 497.18 912.74 499.28 916.47 503.01 C 920.20 506.74 922.30 511.79 922.30 517.07 Z" fill="#ffffff" fill-rule="nonzero" group-id="1" node-id="150" stroke="none" target-height="39.78006" target-width="39.78003" target-x="882.51996" target-y="497.17996"></path><path d="M 891.81 458.64 C 891.81 518.64 843.17 567.28 783.17 567.28 C 723.17 567.28 674.53 518.64 674.53 458.64 C 674.53 398.64 723.17 350.00 783.17 350.00 C 843.17 350.00 891.81 398.64 891.81 458.64 Z" fill="#20ce6e" fill-rule="nonzero" group-id="1" node-id="152" stroke="none" target-height="217.28003" target-width="217.28009" target-x="674.52997" target-y="350"></path><path d="M 812.93 431.44 C 812.93 431.44 781.12 426.28 754.23 430.84 C 754.23 430.84 774.39 439.17 786.31 438.54 C 798.23 437.91 812.93 431.44 812.93 431.44 Z" fill="#e59d29" fill-rule="nonzero" group-id="1" node-id="154" stroke="none" target-height="12.889984" target-width="58.700012" target-x="754.23" target-y="426.28003"></path><path d="M 786.10 494.17 C 786.10 494.17 784.40 467.09 786.66 453.43 C 799.11 452.19 809.53 443.47 812.93 431.43 C 807.54 431.55 800.67 435.43 788.19 433.83 C 772.30 431.74 765.92 429.33 754.19 430.83 C 757.18 442.20 766.45 450.83 778.00 453.00 C 779.68 460.22 782.83 477.23 780.18 494.25 C 780.18 494.25 765.83 494.81 756.74 506.81 L 809.00 506.81 C 809.00 506.81 806.00 497.72 786.10 494.17 Z" fill="#ffffff" fill-rule="nonzero" group-id="1" node-id="156" stroke="none" target-height="77.48001" target-width="58.73999" target-x="754.19" target-y="429.33"></path><path d="M 750.46 511.52 C 749.63 511.52 748.87 511.03 748.52 510.28 C 746.14 505.21 744.91 499.67 744.92 494.07 C 744.92 478.72 754.10 464.85 768.23 458.86 C 754.10 452.87 744.92 439.01 744.92 423.66 C 744.92 422.24 745.00 420.83 745.15 419.42 C 745.28 418.24 746.34 417.40 747.51 417.52 C 748.69 417.65 749.54 418.71 749.41 419.89 C 747.51 437.06 758.78 452.92 775.62 456.77 C 776.60 456.99 777.30 457.86 777.30 458.86 C 777.30 459.86 776.60 460.73 775.62 460.95 C 765.61 463.24 757.17 469.94 752.66 479.16 C 748.15 488.39 748.06 499.16 752.40 508.47 C 752.91 509.53 752.46 510.80 751.40 511.31 C 751.11 511.45 750.79 511.52 750.46 511.52 Z" fill="#ffffff" fill-rule="nonzero" group-id="1" node-id="158" stroke="none" target-height="94.12891" target-width="32.394104" target-x="744.906" target-y="417.39523"></path><path d="M 819.28 496.21 C 818.10 496.21 817.14 495.25 817.14 494.07 C 817.19 478.21 806.20 464.45 790.72 461.00 C 789.75 460.78 789.06 459.91 789.06 458.92 C 789.06 457.92 789.75 457.05 790.72 456.83 C 800.73 454.54 809.17 447.84 813.68 438.62 C 818.19 429.39 818.28 418.62 813.94 409.31 C 813.44 408.24 813.90 406.96 814.97 406.46 C 816.04 405.96 817.32 406.42 817.82 407.49 C 824.01 420.74 822.11 436.35 812.93 447.73 C 808.98 452.61 803.89 456.45 798.11 458.91 C 812.24 464.90 821.42 478.77 821.42 494.12 C 821.39 495.28 820.44 496.21 819.28 496.21 Z" fill="#ffffff" fill-rule="nonzero" group-id="1" node-id="160" stroke="none" target-height="90.2529" target-width="34.948914" target-x="789.062" target-y="405.95743"></path><path d="M 748.20 402.99 L 818.13 402.99 C 820.18 402.99 821.85 404.66 821.85 406.71 L 821.85 406.72 C 821.85 408.77 820.18 410.44 818.13 410.44 L 748.20 410.44 C 746.15 410.44 744.48 408.77 744.48 406.72 L 744.48 406.71 C 744.48 404.66 746.15 402.99 748.20 402.99 Z" fill="#ffffff" fill-rule="nonzero" group-id="1" node-id="162" stroke="none" target-height="7.450012" target-width="77.370056" target-x="744.4799" target-y="402.99"></path><path d="M 748.20 506.85 L 818.13 506.85 C 820.18 506.85 821.85 508.52 821.85 510.57 L 821.85 510.58 C 821.85 512.63 820.18 514.30 818.13 514.30 L 748.20 514.30 C 746.15 514.30 744.48 512.63 744.48 510.58 L 744.48 510.57 C 744.48 508.52 746.15 506.85 748.20 506.85 Z" fill="#ffffff" fill-rule="nonzero" group-id="1" node-id="164" stroke="none" target-height="7.4499817" target-width="77.370056" target-x="744.4799" target-y="506.85"></path><path d="M 670.70 183.94 L 760.32 216.16 L 792.75 125.77 L 801.14 138.27 L 784.57 268.15 L 703.36 248.47 L 694.96 235.97 L 670.70 183.94 Z" fill="#d8dee8" fill-rule="nonzero" group-id="1" node-id="166" stroke="none" target-height="142.38" target-width="130.44" target-x="670.7" target-y="125.77"></path><path d="M 242.30 513.75 L 242.53 513.63 C 208.80 449.12 200.59 374.28 219.53 303.99 C 260.72 149.88 418.62 57.57 571.53 98.22 C 647.38 118.39 710.10 167.50 748.14 236.49 C 750.68 241.11 754.96 244.52 760.04 245.97 C 765.11 247.41 770.55 246.76 775.14 244.17 C 784.78 238.78 788.29 226.64 783.00 216.94 C 739.65 138.40 668.24 82.50 581.90 59.54 C 407.83 13.26 228.06 118.34 181.18 293.79 C 175.43 315.24 171.85 337.20 170.47 359.36 C 163.55 467.66 210.74 572.36 296.47 638.90 C 300.13 641.74 304.69 643.19 309.32 643.00 Z" fill="#d8dee8" fill-rule="nonzero" group-id="1" node-id="168" stroke="none" target-height="629.93317" target-width="624.743" target-x="163.54735" target-y="13.26"></path><path d="M 679.09 196.45 L 768.71 228.67 L 801.14 138.27 L 825.41 190.30 L 792.96 280.66 L 703.36 248.47 L 679.09 196.45 Z" fill="#aeb7c4" fill-rule="nonzero" group-id="1" node-id="170" stroke="none" target-height="142.39" target-width="146.31995" target-x="679.09" target-y="138.27"></path><path d="M 250.69 526.25 L 250.92 526.14 C 217.22 461.62 209.04 386.78 228.00 316.50 C 269.14 162.38 427.00 70.08 580.00 110.73 C 655.80 130.90 718.52 180.00 756.56 249.00 C 759.10 253.62 763.39 257.03 768.46 258.47 C 773.53 259.91 778.97 259.27 783.56 256.68 C 793.17 251.26 796.63 239.12 791.33 229.45 C 748.00 150.90 676.64 95.00 590.29 72.05 C 416.22 25.77 236.46 130.85 189.57 306.30 C 183.82 327.75 180.24 349.71 178.86 371.87 C 172.20 479.20 218.12 584.10 304.86 651.41 C 308.51 654.25 313.05 655.71 317.68 655.53 Z" fill="#aeb7c4" fill-rule="nonzero" group-id="1" node-id="172" stroke="none" target-height="629.9403" target-width="624.43494" target-x="172.2" target-y="25.769999"></path><path d="M 196.88 870.87 C 192.33 873.66 190.00 786.51 176.79 738.98 C 163.58 691.45 220.97 640.22 238.58 655.57 C 256.01 670.78 251.58 497.69 298.66 525.78 C 345.74 553.87 324.57 636.28 298.29 671.36 C 272.01 706.44 271.37 718.55 290.00 712.70 C 308.63 706.85 378.00 759.59 196.88 870.87 Z" fill="#c4d7f2" fill-rule="nonzero" group-id="1" node-id="174" stroke="none" target-height="375.97003" target-width="214.42" target-x="163.58" target-y="497.69"></path><path d="M 292.89 563.66 C 290.97 575.66 288.66 587.66 286.22 599.57 C 283.78 611.48 281.14 623.42 278.33 635.30 C 276.99 641.30 275.49 647.18 274.02 653.11 C 273.27 656.11 272.56 659.04 271.79 662.00 L 269.47 670.87 C 267.92 676.78 266.34 682.69 264.66 688.57 C 262.98 694.45 261.37 700.36 259.66 706.23 L 254.33 723.81 L 253.00 728.20 L 251.59 732.57 L 248.76 741.31 L 245.89 750.00 C 244.89 752.91 243.89 755.79 242.89 758.69 C 240.89 764.47 238.89 770.25 236.75 776.01 C 228.32 798.99 218.72 821.53 208.00 843.54 C 217.05 820.81 225.50 797.91 233.33 774.84 L 239.02 757.45 C 239.97 754.56 240.96 751.68 241.86 748.76 L 244.56 740.03 L 247.30 731.30 L 248.67 726.94 L 249.98 722.56 L 255.22 705.00 C 258.63 693.29 262.04 681.59 265.22 669.83 L 267.68 661.02 C 268.50 658.09 269.27 655.14 270.07 652.20 L 272.44 643.37 C 273.26 640.43 274.03 637.48 274.80 634.53 C 281.03 610.98 287.06 587.36 292.89 563.66 Z" fill="#92a7d3" fill-rule="nonzero" group-id="1" node-id="176" stroke="none" target-height="279.88" target-width="84.890015" target-x="208" target-y="563.66"></path><path d="M 454.22 895.89 L 109.49 895.89 L 141.37 278.08 C 142.45 257.23 157.08 239.86 175.14 237.42 L 175.14 237.19 L 177.61 237.13 L 554.15 237.13 L 554.15 242.33 C 537.04 242.33 522.28 258.48 521.25 278.33 L 491.45 855.86 C 490.31 877.94 473.61 895.89 454.22 895.89 Z M 115.00 890.70 L 454.22 890.70 C 470.89 890.70 485.22 874.96 486.22 855.61 L 516.03 278.08 C 516.82 262.74 524.96 249.34 536.32 242.33 L 178.32 242.33 L 177.71 242.39 C 161.18 243.39 147.46 259.22 146.47 278.39 Z" fill="#ccceff" fill-rule="nonzero" group-id="1" node-id="178" stroke="none" target-height="658.75995" target-width="444.66003" target-x="109.490005" target-y="237.13002"></path><path d="M 493.00 771.00 L 516.00 751.00 L 594.77 751.25 C 576.34 751.25 562.16 733.93 563.25 712.76 L 582.35 342.59 L 585.68 278.22 C 586.77 257.05 572.58 239.73 554.15 239.73 L 554.15 239.73 C 535.72 239.73 519.75 257.05 518.66 278.22 L 517.60 298.68 L 515.34 342.59 Z" fill="#ccceff" fill-rule="evenodd" group-id="1" node-id="180" stroke="none" target-height="531.27" target-width="101.77002" target-x="493" target-y="239.73"></path><path d="M 493.00 771.00 L 516.00 751.00 L 540.12 278.21 C 540.99 261.35 551.30 246.93 564.78 241.77 C 561.40 240.43 557.79 239.75 554.15 239.77 L 554.15 239.77 C 535.72 239.77 519.75 257.09 518.65 278.25 L 517.65 298.71 L 515.38 342.63 Z" fill="#a2a6e0" fill-rule="evenodd" group-id="1" node-id="182" stroke="none" target-height="531.2512" target-width="71.78003" target-x="493" target-y="239.74878"></path><path d="M 112.22 893.30 L 454.22 893.30 C 472.22 893.30 487.79 876.43 488.85 855.74 L 518.66 278.21 C 519.75 257.05 535.72 239.73 554.15 239.73 L 177.63 239.73 L 177.63 239.79 C 159.98 240.89 145.02 257.79 143.96 278.21 L 143.24 292.21 Z" fill="#ffffff" fill-rule="evenodd" group-id="1" node-id="184" stroke="none" target-height="653.57" target-width="441.93002" target-x="112.21999" target-y="239.73"></path><path d="M 234.89 308.46 L 173.80 308.46 L 170.18 378.61 L 231.27 378.61 Z M 175.75 301.93 L 240.91 301.93 L 236.62 385.15 L 164.16 385.15 L 168.45 301.93 Z" fill="#ccceff" fill-rule="nonzero" group-id="1" node-id="186" stroke="none" target-height="83.22" target-width="76.75" target-x="164.16" target-y="301.93"></path><path d="M 186.65 339.25 L 182.49 343.76 L 196.91 361.38 L 223.12 332.96 L 219.42 328.45 L 197.38 352.35 L 186.65 339.25 Z" fill="#51cfa3" fill-rule="evenodd" group-id="1" node-id="188" stroke="none" target-height="32.929993" target-width="40.62999" target-x="182.49" target-y="328.45"></path><path d="M 264.47 339.74 L 486.92 339.74 L 486.51 347.61 L 264.06 347.61 L 264.47 339.74 Z" fill="#ccceff" fill-rule="evenodd" group-id="1" node-id="190" stroke="none" target-height="7.869995" target-width="222.86002" target-x="264.06" target-y="339.74"></path><path d="M 263.26 363.01 L 485.72 363.01 L 485.31 370.88 L 262.86 370.88 L 263.26 363.01 Z" fill="#ccceff" fill-rule="evenodd" group-id="1" node-id="192" stroke="none" target-height="7.8700256" target-width="222.85999" target-x="262.86" target-y="363.01"></path><path d="M 265.84 313.20 L 391.99 313.20 L 391.59 321.08 L 265.43 321.08 L 265.84 313.20 Z" fill="#ccceff" fill-rule="evenodd" group-id="1" node-id="194" stroke="none" target-height="7.8799744" target-width="126.56" target-x="265.43" target-y="313.2"></path><path d="M 228.80 426.44 L 167.72 426.44 L 164.09 496.60 L 225.18 496.60 Z M 169.66 419.91 L 234.82 419.91 L 230.53 503.13 L 158.07 503.13 L 162.36 419.91 Z" fill="#ccceff" fill-rule="nonzero" group-id="1" node-id="196" stroke="none" target-height="83.21997" target-width="76.75" target-x="158.07" target-y="419.91"></path><path d="M 222.71 544.43 L 161.63 544.43 L 158.00 614.58 L 219.08 614.58 Z M 163.57 537.90 L 228.73 537.90 L 224.44 621.12 L 152.00 621.12 L 156.30 537.90 Z" fill="#ccceff" fill-rule="nonzero" group-id="1" node-id="198" stroke="none" target-height="83.21997" target-width="76.729996" target-x="152" target-y="537.9"></path><path d="M 216.62 662.41 L 155.54 662.41 L 151.92 732.57 L 213.00 732.57 Z M 157.48 655.88 L 222.65 655.88 L 218.35 739.10 L 145.89 739.10 L 150.19 655.88 Z" fill="#ccceff" fill-rule="nonzero" group-id="1" node-id="200" stroke="none" target-height="83.21991" target-width="76.759995" target-x="145.89" target-y="655.88"></path><path d="M 180.56 457.24 L 176.40 461.75 L 190.82 479.36 L 217.03 450.95 L 213.33 446.44 L 191.29 470.33 L 180.56 457.24 Z" fill="#51cfa3" fill-rule="evenodd" group-id="1" node-id="202" stroke="none" target-height="32.919983" target-width="40.630005" target-x="176.4" target-y="446.44"></path><path d="M 174.47 575.22 L 170.31 579.73 L 184.74 597.35 L 210.94 568.93 L 207.24 564.42 L 185.20 588.32 L 174.47 575.22 Z" fill="#51cfa3" fill-rule="evenodd" group-id="1" node-id="204" stroke="none" target-height="32.929993" target-width="40.630005" target-x="170.31" target-y="564.42"></path><path d="M 168.38 693.21 L 164.22 697.72 L 178.65 715.33 L 204.85 686.92 L 201.15 682.41 L 179.11 706.30 L 168.38 693.21 Z" fill="#51cfa3" fill-rule="evenodd" group-id="1" node-id="206" stroke="none" target-height="32.920044" target-width="40.630005" target-x="164.22" target-y="682.41"></path><path d="M 258.38 457.72 L 480.83 457.72 L 480.42 465.60 L 257.97 465.60 L 258.38 457.72 Z" fill="#ccceff" fill-rule="evenodd" group-id="1" node-id="208" stroke="none" target-height="7.880005" target-width="222.85999" target-x="257.97" target-y="457.72"></path><path d="M 252.29 575.71 L 474.74 575.71 L 474.33 583.58 L 251.88 583.58 L 252.29 575.71 Z" fill="#ccceff" fill-rule="evenodd" group-id="1" node-id="210" stroke="none" target-height="7.869995" target-width="222.85999" target-x="251.88" target-y="575.71"></path><path d="M 246.20 693.69 L 468.65 693.69 L 468.25 701.57 L 245.79 701.57 L 246.20 693.69 Z" fill="#ccceff" fill-rule="evenodd" group-id="1" node-id="212" stroke="none" target-height="7.879944" target-width="222.85999" target-x="245.79001" target-y="693.69006"></path><path d="M 240.11 811.68 L 462.56 811.68 L 462.16 819.55 L 239.71 819.55 L 240.11 811.68 Z" fill="#ccceff" fill-rule="evenodd" group-id="1" node-id="214" stroke="none" target-height="7.869995" target-width="222.84999" target-x="239.71" target-y="811.68"></path><path d="M 257.18 481.00 L 479.63 481.00 L 479.22 488.87 L 256.77 488.87 L 257.18 481.00 Z" fill="#ccceff" fill-rule="evenodd" group-id="1" node-id="216" stroke="none" target-height="7.8700256" target-width="222.86002" target-x="256.77" target-y="481"></path><path d="M 251.09 598.98 L 473.54 598.98 L 473.13 606.86 L 250.68 606.86 L 251.09 598.98 Z" fill="#ccceff" fill-rule="evenodd" group-id="1" node-id="218" stroke="none" target-height="7.880005" target-width="222.86002" target-x="250.68" target-y="598.98"></path><path d="M 245.00 716.97 L 467.45 716.97 L 467.04 724.84 L 244.59 724.84 L 245.00 716.97 Z" fill="#ccceff" fill-rule="evenodd" group-id="1" node-id="220" stroke="none" target-height="7.870056" target-width="222.86002" target-x="244.59" target-y="716.97"></path><path d="M 238.91 834.95 L 461.36 834.95 L 460.96 842.83 L 238.50 842.83 L 238.91 834.95 Z" fill="#ccceff" fill-rule="evenodd" group-id="1" node-id="222" stroke="none" target-height="7.880005" target-width="222.86002" target-x="238.5" target-y="834.95"></path><path d="M 259.75 431.19 L 385.90 431.19 L 385.50 439.06 L 259.34 439.06 L 259.75 431.19 Z" fill="#ccceff" fill-rule="evenodd" group-id="1" node-id="224" stroke="none" target-height="7.869995" target-width="126.56003" target-x="259.34" target-y="431.19"></path><path d="M 253.66 549.17 L 379.81 549.17 L 379.41 557.05 L 253.25 557.05 L 253.66 549.17 Z" fill="#ccceff" fill-rule="evenodd" group-id="1" node-id="226" stroke="none" target-height="7.880005" target-width="126.56" target-x="253.25" target-y="549.17"></path><path d="M 247.57 667.16 L 373.73 667.16 L 373.32 675.04 L 247.16 675.04 L 247.57 667.16 Z" fill="#ccceff" fill-rule="evenodd" group-id="1" node-id="228" stroke="none" target-height="7.880005" target-width="126.56999" target-x="247.16002" target-y="667.16"></path><path d="M 426.71 777.00 L 422.71 854.78 C 421.62 875.95 435.81 893.27 454.24 893.27 L 77.69 893.27 L 77.69 893.21 C 60.15 892.11 46.93 875.21 47.99 854.78 L 48.71 840.78 L 52.00 777.00 Z" fill="#e9f6ff" fill-rule="evenodd" group-id="1" node-id="230" stroke="none" target-height="116.27002" target-width="407.31003" target-x="46.93" target-y="777"></path><path d="M 454.22 895.89 L 75.00 895.89 L 75.00 895.57 C 57.17 892.99 44.35 875.57 45.43 854.68 L 49.57 774.43 L 429.44 774.43 L 425.29 855.00 C 424.75 865.40 428.16 875.28 434.65 882.11 C 439.70 887.57 446.78 890.70 454.22 890.75 Z M 78.70 890.70 L 436.94 890.70 C 434.73 889.25 432.70 887.55 430.89 885.63 C 423.42 877.78 419.49 866.49 420.10 854.63 L 424.00 779.62 L 54.48 779.62 L 50.59 855.00 C 49.59 874.00 61.59 889.68 77.86 890.70 Z" fill="#ccceff" fill-rule="nonzero" group-id="1" node-id="232" stroke="none" target-height="121.45996" target-width="409.86996" target-x="44.35" target-y="774.43"></path></g></svg>