<?xml version="1.0" standalone="no"?><!DOCTYPE svg PUBLIC "-//W3C//DTD SVG 1.1//EN" "http://www.w3.org/Graphics/SVG/1.1/DTD/svg11.dtd"><svg height="1024" node-id="1" sillyvg="true" template-height="1024" template-width="1024" version="1.1" viewBox="0 0 1024 1024" width="1024" xmlns="http://www.w3.org/2000/svg" xmlns:xlink="http://www.w3.org/1999/xlink"><defs node-id="72"></defs><path d="M 0.00 0.00 L 1024.00 0.00 L 1024.00 1024.00 L 0.00 1024.00 Z" fill="#ffffff" fill-rule="nonzero" hidden="true" node-id="74" stroke="none" target-height="1024" target-width="1024" target-x="0" target-y="0" visibility="hidden"></path><path d="M 509.93 164.31 C 516.11 164.31 522.29 164.40 528.47 164.54 C 526.20 199.73 526.54 236.25 539.13 269.60 C 553.09 274.54 567.58 266.40 576.88 256.25 C 596.42 234.92 611.25 209.82 630.19 187.99 C 644.51 195.36 658.46 203.87 669.52 215.72 C 676.84 222.98 682.03 232.20 689.94 238.92 C 690.90 239.74 692.86 241.41 693.83 242.24 C 708.66 268.07 718.52 296.26 728.90 324.05 C 736.25 345.46 744.81 366.78 747.11 389.50 C 728.71 393.24 707.47 391.77 691.78 403.42 C 690.42 404.58 689.06 405.78 687.73 406.97 C 671.42 397.78 648.68 398.18 634.84 411.62 C 626.22 419.81 625.51 435.30 635.21 442.95 C 647.52 455.69 666.32 453.16 682.31 454.61 C 688.72 457.33 695.22 459.91 702.11 461.13 C 685.32 487.45 654.58 498.11 628.91 513.34 C 623.98 515.92 620.97 520.74 617.57 524.94 C 616.32 526.27 615.05 527.60 613.72 528.91 C 629.48 527.23 645.39 527.23 661.16 525.50 C 677.72 552.39 690.71 581.40 700.18 611.51 L 699.47 612.16 C 685.77 625.07 672.70 639.39 664.33 656.40 C 658.55 668.03 662.89 681.61 669.61 691.79 C 677.69 703.70 690.68 710.71 702.76 717.85 C 700.38 736.49 693.20 755.06 679.85 768.56 C 671.99 775.93 660.39 774.23 650.55 775.02 C 641.50 774.88 633.23 778.62 625.23 782.37 C 625.74 785.43 626.22 788.49 626.84 791.56 C 628.80 800.06 631.89 808.26 635.49 816.20 C 625.54 813.79 614.93 809.20 610.40 799.36 C 603.79 784.89 605.29 768.39 606.94 753.02 C 609.26 733.34 619.61 716.04 629.68 699.42 C 627.01 702.26 624.38 705.12 621.68 707.90 L 619.87 708.70 C 611.13 711.45 606.09 719.50 600.53 726.13 C 587.97 741.76 578.47 760.50 561.54 772.05 C 534.37 790.93 494.04 786.59 471.22 762.83 C 460.13 751.60 453.75 736.91 444.22 724.55 C 441.13 720.01 435.91 718.00 431.20 715.67 C 427.57 711.79 423.60 708.18 419.10 705.35 C 430.98 719.22 435.23 737.39 438.75 754.83 C 440.90 770.37 443.20 786.68 438.52 801.99 C 435.80 810.05 427.77 813.90 420.29 816.40 C 419.86 805.85 419.80 795.19 417.45 784.84 C 402.05 778.51 384.38 779.11 369.89 770.12 C 349.62 760.73 342.50 737.25 339.35 716.89 L 339.21 715.90 C 356.08 712.44 372.02 702.60 380.39 687.23 C 384.56 680.02 383.08 671.09 379.31 664.09 C 371.00 649.06 359.66 635.93 347.38 624.02 C 345.42 622.00 343.55 619.96 341.59 617.98 C 347.07 601.64 351.29 584.86 358.58 569.17 C 364.62 554.80 373.58 541.92 380.16 527.80 C 389.43 529.50 398.85 530.52 408.32 530.52 L 409.79 527.38 C 410.64 525.50 412.37 521.82 413.25 519.97 C 383.65 501.23 351.32 486.09 326.17 461.05 C 334.67 458.41 344.00 457.73 351.72 452.99 L 352.68 448.74 C 347.01 449.11 341.39 449.87 335.72 450.27 C 331.41 450.19 327.10 449.93 322.82 449.70 C 322.17 445.39 321.51 441.05 320.83 436.74 C 317.57 436.18 314.28 435.55 311.02 434.90 C 309.77 434.25 307.28 432.94 306.03 432.32 C 315.67 430.93 325.66 431.81 335.07 428.86 C 337.31 423.73 330.62 423.47 327.24 423.47 C 317.74 423.13 308.24 423.67 298.74 423.73 C 301.15 422.37 303.56 420.98 305.92 419.56 C 305.92 413.32 305.95 407.11 306.00 400.90 C 317.66 402.43 329.03 405.89 340.80 406.29 C 336.01 394.24 319.59 396.33 309.07 392.96 C 308.73 360.12 320.10 328.70 327.75 297.14 C 331.84 279.39 337.34 261.97 340.94 244.11 C 342.05 241.78 343.41 239.63 345.05 237.64 C 360.08 216.86 379.48 199.98 400.75 185.83 C 401.06 186.09 401.68 186.60 402.00 186.85 C 413.79 196.30 422.16 209.09 431.83 220.54 C 445.69 237.10 457.97 256.27 477.71 266.51 C 484.37 269.52 491.66 270.34 498.89 270.60 C 507.17 236.03 512.90 200.41 509.95 164.76 L 509.93 164.31 Z M 376.27 355.95 C 383.42 356.29 390.14 353.71 396.81 351.50 C 387.76 365.93 389.26 386.52 402.48 397.89 C 416.34 412.19 442.94 408.36 451.85 390.41 C 462.14 373.48 454.12 349.20 435.43 342.31 C 415.10 335.02 393.23 344.92 376.27 355.95 Z M 586.80 376.20 C 587.71 395.94 608.41 412.38 627.87 405.95 C 648.14 398.74 655.00 372.43 645.87 354.14 C 650.81 356.12 658.07 363.75 662.01 356.29 C 647.52 347.90 631.64 338.26 614.14 340.98 C 597.58 343.13 584.68 359.55 586.80 376.20 Z M 371.00 400.19 C 359.12 401.98 347.55 409.77 343.55 421.43 C 340.18 430.22 347.24 438.53 352.62 444.77 C 370.01 457.08 397.17 453.62 409.79 436.09 C 418.05 425.23 410.81 408.58 399.07 403.65 C 390.20 400.30 380.44 399.11 371.00 400.19 Z M 497.73 404.08 C 502.16 412.67 511.00 417.26 516.84 424.52 C 517.10 441.17 492.20 452.03 481.99 437.54 C 479.87 434.99 479.27 424.07 474.48 429.77 C 473.51 440.80 483.95 449.48 494.30 450.35 C 504.79 451.89 513.33 444.43 519.82 437.20 C 527.73 445.36 539.76 451.89 551.21 447.12 C 560.40 444.17 565.68 435.10 566.67 425.91 C 559.18 426.08 560.00 435.98 554.28 439.10 C 543.22 448.40 522.20 439.32 523.51 424.44 C 528.41 416.64 536.92 411.73 542.17 404.05 C 535.87 399.37 527.79 399.99 520.39 399.76 C 512.70 399.96 504.23 399.06 497.73 404.08 Z M 449.49 542.12 C 475.78 568.15 480.55 607.68 479.64 642.90 C 479.04 651.75 479.64 665.34 468.64 667.83 C 466.85 658.53 466.40 648.80 462.62 640.01 C 461.46 649.48 462.62 659.01 463.11 668.51 C 450.51 668.26 440.53 659.35 434.55 648.97 C 421.96 627.51 415.44 602.41 398.82 583.41 C 401.91 601.27 407.98 618.52 413.45 635.79 C 419.80 653.09 429.62 671.63 447.74 678.75 C 460.84 684.14 478.99 682.46 486.79 669.22 C 496.77 651.98 494.56 630.77 491.78 611.85 C 486.25 585.20 476.15 554.43 449.49 542.12 Z M 543.19 588.77 C 535.87 611.31 531.19 637.01 540.27 659.69 C 549.54 682.63 583.29 685.50 599.05 667.77 C 623.24 641.00 625.91 602.81 643.66 572.35 C 625.65 587.98 617.71 611.34 606.48 631.70 C 598.57 646.79 588.79 665.19 569.85 667.29 C 570.75 657.25 572.82 647.24 572.23 637.12 C 566.24 644.95 565.90 655.13 563.18 664.23 C 562.59 664.46 561.45 664.85 560.86 665.08 C 548.52 653.85 549.97 635.33 550.02 620.11 C 552.80 592.71 561.11 564.72 579.83 543.79 C 560.43 550.71 549.77 570.48 543.19 588.77 Z" fill="#fdfdfd" fill-rule="nonzero" node-id="76" stroke="none" target-height="652.088" target-width="448.366" target-x="298.744" target-y="164.31"></path><path d="M 342.56 116.05 C 348.97 111.88 357.19 112.39 364.25 114.43 C 393.32 123.81 417.05 143.98 444.19 157.31 C 450.06 161.25 457.07 158.98 463.45 158.13 C 503.77 151.18 545.37 151.58 585.50 159.60 C 608.01 146.30 630.05 132.09 653.39 120.21 C 663.17 115.68 673.80 111.00 684.84 112.19 C 697.06 115.51 703.32 127.78 708.86 138.13 C 730.32 182.88 732.42 234.24 726.55 282.79 C 724.42 291.78 730.46 299.38 734.12 307.04 C 747.48 332.22 758.23 359.07 762.42 387.40 C 774.36 387.54 786.41 385.50 798.27 387.32 C 801.98 389.64 799.94 396.16 795.06 395.11 C 784.54 396.90 773.82 396.87 763.19 397.47 C 764.01 407.48 763.90 417.55 762.96 427.56 C 775.78 430.08 790.95 427.81 802.04 435.41 L 800.90 439.41 C 787.63 442.50 773.77 436.69 760.24 436.26 C 757.89 445.28 754.20 453.84 750.09 462.21 C 761.32 465.95 773.17 469.07 782.93 476.10 C 784.43 479.11 783.04 484.44 778.73 483.48 C 766.85 479.96 755.48 474.83 743.85 470.49 C 727.60 493.49 703.78 510.05 678.46 521.70 C 700.83 561.23 715.35 604.62 727.03 648.35 C 734.18 679.29 740.08 711.82 733.38 743.35 C 729.92 760.08 721.96 775.42 712.85 789.74 C 732.02 793.03 752.04 793.63 770.28 800.86 C 774.50 801.91 774.28 806.16 774.67 809.62 L 773.23 809.59 C 747.45 809.56 721.82 805.22 696.07 805.25 C 685.29 815.69 674.46 827.40 658.75 829.81 C 641.11 832.99 623.16 830.29 605.38 830.41 C 549.63 832.39 493.85 830.72 438.10 832.25 C 421.22 834.21 404.15 832.85 387.59 829.36 C 373.41 825.19 363.88 812.54 350.10 807.86 C 326.65 806.81 301.27 809.68 280.37 796.58 C 256.38 782.99 235.17 762.24 225.98 735.78 C 215.06 706.37 222.91 672.28 241.60 647.78 C 253.00 632.75 271.10 621.07 290.52 622.17 C 299.14 622.40 306.26 627.68 312.64 632.92 C 320.10 593.53 332.72 554.94 353.02 520.26 C 328.21 509.96 306.23 492.33 291.03 470.15 C 278.10 473.27 265.85 478.46 253.20 482.46 C 246.99 481.89 247.96 473.61 252.89 471.99 C 263.10 466.92 274.27 464.22 285.13 460.93 C 281.22 452.43 277.59 443.78 274.67 434.87 C 260.04 436.23 245.46 439.24 230.77 439.27 L 228.78 438.11 C 228.67 436.88 228.42 434.45 228.30 433.26 C 242.45 427.64 258.02 428.12 272.94 426.34 C 271.95 416.47 271.55 406.57 272.06 396.67 C 257.57 393.84 242.06 397.04 228.30 390.83 L 230.60 386.38 C 244.61 383.86 258.99 387.26 273.14 387.06 C 277.11 355.90 289.70 326.66 304.76 299.38 C 308.53 293.51 305.69 286.56 305.38 280.24 C 299.45 233.36 302.40 183.88 323.33 140.83 C 328.26 131.64 333.40 121.69 342.56 116.05 Z M 346.38 131.44 C 320.13 170.86 315.36 220.54 320.18 266.60 C 325.29 259.88 330.70 253.44 335.92 246.83 L 333.54 246.29 L 335.64 245.67 L 336.35 243.57 L 336.60 246.09 C 339.55 243.40 342.36 240.56 345.05 237.64 C 343.41 239.63 342.05 241.78 340.94 244.11 C 325.03 258.74 324.63 281.60 316.87 300.46 C 305.41 329.49 292.25 358.50 288.96 389.93 C 295.68 390.72 302.40 391.71 309.07 392.96 C 319.59 396.33 336.01 394.24 340.80 406.29 C 329.03 405.89 317.66 402.43 306.00 400.90 L 306.03 400.39 C 299.74 399.60 293.44 398.74 287.15 397.95 C 287.46 405.86 287.54 413.77 288.68 421.63 C 288.42 427.38 295.60 424.75 298.74 423.73 C 308.24 423.67 317.74 423.13 327.24 423.47 C 330.62 423.47 337.31 423.73 335.07 428.86 C 325.66 431.81 315.67 430.93 306.03 432.32 C 300.96 431.55 295.82 433.03 290.80 433.51 C 293.41 441.25 296.31 448.91 299.40 456.48 C 303.39 455.86 307.37 455.23 311.33 454.52 C 319.42 452.82 327.58 451.75 335.72 450.27 C 341.39 449.87 347.01 449.11 352.68 448.74 L 351.72 452.99 C 344.00 457.73 334.67 458.41 326.17 461.05 C 319.42 462.58 312.67 463.91 305.89 465.19 C 317.43 482.97 335.04 495.87 353.48 505.82 C 371.28 515.41 391.47 518.95 409.79 527.38 L 408.32 530.52 C 398.85 530.52 389.43 529.50 380.16 527.80 C 375.71 527.63 368.70 522.27 366.12 528.14 C 351.75 553.80 338.84 580.86 333.06 609.87 C 330.45 621.47 328.49 633.18 327.24 645.00 C 323.56 658.50 325.80 672.68 324.72 686.49 C 324.12 696.76 323.84 707.08 322.74 717.34 C 321.20 748.82 337.74 777.52 358.89 799.58 C 358.78 791.13 354.61 777.66 364.76 773.49 C 365.10 790.17 371.20 809.17 388.04 815.92 C 387.02 807.15 385.15 797.94 388.87 789.54 C 390.88 798.28 391.11 807.81 395.95 815.63 C 401.29 818.70 407.67 817.28 413.48 817.31 C 414.27 806.44 413.62 795.24 417.45 784.84 C 419.80 795.19 419.86 805.85 420.29 816.40 C 427.77 813.90 435.80 810.05 438.52 801.99 C 443.20 786.68 440.90 770.37 438.75 754.83 C 435.23 737.39 430.98 719.22 419.10 705.35 C 423.60 708.18 427.57 711.79 431.20 715.67 C 444.50 744.57 459.68 775.82 454.46 808.46 C 500.65 817.53 547.95 811.78 593.84 803.75 C 586.86 769.95 601.89 736.51 619.87 708.70 L 621.68 707.90 C 624.38 705.12 627.01 702.26 629.68 699.42 C 619.61 716.04 609.26 733.34 606.94 753.02 C 605.29 768.39 603.79 784.89 610.40 799.36 C 614.93 809.20 625.54 813.79 635.49 816.20 C 631.89 808.26 628.80 800.06 626.84 791.56 C 627.64 791.53 629.20 791.44 629.99 791.41 C 634.25 800.04 636.40 810.22 643.80 816.94 C 648.14 821.39 656.71 818.87 658.35 813.08 C 660.62 804.37 659.31 795.33 659.91 786.48 C 664.39 794.96 664.56 804.74 666.52 813.96 C 677.92 802.39 682.03 786.20 684.01 770.57 C 691.53 776.13 692.61 785.29 692.01 794.05 C 708.09 773.75 718.75 748.91 720.00 722.85 C 719.26 708.35 718.61 693.78 715.58 679.54 C 713.68 670.61 711.98 661.68 710.30 652.72 C 707.27 639.08 704.35 625.32 699.47 612.16 L 700.18 611.51 C 690.71 581.40 677.72 552.39 661.16 525.50 C 645.39 527.23 629.48 527.23 613.72 528.91 C 615.05 527.60 616.32 526.27 617.57 524.94 C 659.77 519.89 701.71 499.98 728.54 466.32 C 719.77 464.25 711.01 462.35 702.11 461.13 C 695.22 459.91 688.72 457.33 682.31 454.61 L 683.84 450.75 C 691.53 450.78 699.18 451.32 706.84 452.06 L 707.41 452.65 C 716.77 453.62 726.24 457.90 735.51 456.54 C 739.54 449.87 742.09 442.47 745.04 435.33 C 731.43 433.99 717.73 432.80 704.03 433.08 C 699.61 431.41 698.96 428.92 702.08 425.57 C 717.11 422.56 732.42 425.85 747.56 425.68 C 748.07 416.52 748.39 407.37 748.53 398.20 C 732.73 400.08 716.94 402.03 701.42 405.52 C 697.94 406.32 694.73 405.61 691.78 403.42 C 707.47 391.77 728.71 393.24 747.11 389.50 C 744.81 366.79 736.25 345.46 728.90 324.05 C 718.52 296.26 708.66 268.07 693.83 242.24 C 692.86 241.41 690.90 239.74 689.94 238.92 L 693.60 240.76 C 698.79 229.31 702.22 216.52 698.96 203.98 C 701.40 215.52 700.04 227.46 701.34 239.15 C 700.09 239.23 697.60 239.43 696.38 239.51 C 698.08 250.06 706.22 258.20 712.74 266.26 C 716.17 243.68 714.41 220.63 711.07 198.14 C 707.47 174.38 700.55 150.47 686.00 130.96 C 679.82 126.74 672.30 127.73 665.89 130.88 C 643.12 141.40 625.09 159.32 604.73 173.55 C 588.05 172.87 571.77 168.96 555.30 166.58 C 546.37 165.78 537.43 165.10 528.47 164.54 C 522.29 164.40 516.11 164.31 509.93 164.31 L 509.95 164.76 C 501.45 164.76 492.94 165.42 484.49 166.41 C 474.17 167.68 463.84 168.99 453.55 170.32 L 453.66 171.20 C 447.42 172.36 441.10 173.21 435.09 175.23 C 412.18 162.78 393.66 143.44 369.67 132.75 C 363.12 130.03 354.95 126.00 348.48 131.30 C 347.97 131.36 346.92 131.41 346.38 131.44 Z M 274.53 637.01 L 274.50 637.97 C 259.44 646.48 250.93 662.16 242.57 676.65 C 237.15 688.05 233.83 700.42 234.06 713.12 C 239.33 746.01 263.95 774.68 295.09 786.03 C 306.85 790.62 319.70 789.06 332.01 789.15 C 323.05 778.48 316.35 766.18 311.08 753.36 C 305.46 736.03 304.70 717.63 305.58 699.56 C 306.40 685.38 306.20 671.06 309.29 657.14 C 296.39 671.77 285.08 688.22 278.04 706.51 C 271.78 721.80 279.66 739.21 292.00 748.91 C 294.40 751.32 299.14 752.45 299.23 756.48 C 293.61 760.22 286.81 757.41 281.87 753.84 C 267.66 743.89 260.69 725.51 263.30 708.50 C 267.92 693.15 274.98 678.81 283.20 665.11 C 287.94 659.72 292.62 654.28 297.30 648.86 C 299.45 646.56 301.64 644.29 303.82 642.03 C 297.30 631.76 284.37 632.95 274.53 637.01 Z" fill="#351a22" fill-rule="nonzero" node-id="78" stroke="none" target-height="723.21" target-width="586.979" target-x="215.05998" target-y="110.997"></path><path d="M 421.33 872.97 C 426.61 871.81 432.03 871.87 437.41 871.50 C 437.16 872.74 436.68 875.27 436.42 876.54 C 432.48 876.54 428.57 876.54 424.62 876.60 C 424.60 879.18 424.51 884.37 424.48 886.95 C 427.20 886.95 432.65 886.95 435.40 886.95 C 435.71 887.97 436.37 889.96 436.68 890.95 C 432.45 891.09 428.25 891.21 424.03 891.38 C 424.48 895.03 424.91 898.69 425.31 902.38 C 423.97 902.21 421.36 901.84 420.06 901.67 C 420.57 892.20 418.30 881.88 421.33 872.97 Z" fill="#351a22" fill-rule="nonzero" hidden="true" node-id="80" stroke="none" target-height="30.881042" target-width="19.113007" target-x="418.301" target-y="871.498" visibility="hidden"></path><path d="M 471.56 870.05 C 476.21 868.86 477.74 870.50 476.24 874.99 C 471.50 876.21 469.97 874.56 471.56 870.05 Z" fill="#351a22" fill-rule="nonzero" hidden="true" node-id="82" stroke="none" target-height="7.3450317" target-width="7.77005" target-x="469.96896" target-y="868.86" visibility="hidden"></path><path d="M 564.09 870.56 C 565.31 870.36 567.75 869.97 568.94 869.77 C 568.99 880.97 569.59 892.20 568.88 903.43 C 567.92 902.49 565.96 900.62 565.00 899.68 C 564.12 889.99 564.68 880.23 564.09 870.56 Z" fill="#351a22" fill-rule="nonzero" hidden="true" node-id="84" stroke="none" target-height="33.660034" target-width="5.502014" target-x="564.088" target-y="869.768" visibility="hidden"></path><path d="M 441.89 880.94 C 445.89 881.00 451.00 878.47 453.75 882.64 C 442.80 883.32 447.25 895.43 445.55 902.49 C 438.46 897.90 443.14 887.92 441.89 880.94 Z" fill="#351a22" fill-rule="nonzero" hidden="true" node-id="86" stroke="none" target-height="24.01892" target-width="15.285004" target-x="438.46298" target-y="878.47406" visibility="hidden"></path><path d="M 509.39 882.61 C 513.13 881.71 516.84 880.71 520.56 879.72 C 530.83 881.90 532.30 897.45 524.96 903.09 C 524.44 897.59 524.56 892.00 523.51 886.56 C 521.44 881.99 512.99 884.46 513.81 889.50 C 512.87 894.27 514.18 900.22 509.70 903.54 C 509.05 896.57 509.19 889.59 509.39 882.61 Z" fill="#351a22" fill-rule="nonzero" hidden="true" node-id="88" stroke="none" target-height="23.820984" target-width="23.25299" target-x="509.04602" target-y="879.721" visibility="hidden"></path><path d="M 471.58 879.84 L 475.81 880.86 C 477.29 887.89 476.24 895.23 476.35 902.38 C 475.36 902.07 473.40 901.44 472.44 901.10 C 472.10 894.01 471.73 886.92 471.58 879.84 Z" fill="#351a22" fill-rule="nonzero" hidden="true" node-id="90" stroke="none" target-height="22.543945" target-width="5.7000427" target-x="471.58496" target-y="879.8351" visibility="hidden"></path><path d="M 573.99 879.44 C 579.88 883.24 580.14 890.98 584.90 895.72 C 587.46 890.61 586.09 881.42 593.50 880.68 C 589.50 892.03 588.65 912.45 572.57 911.99 C 574.07 907.54 578.64 906.09 582.27 903.85 C 578.75 896.00 574.72 888.17 573.99 879.44 Z" fill="#351a22" fill-rule="nonzero" hidden="true" node-id="92" stroke="none" target-height="33.007996" target-width="20.927979" target-x="572.567" target-y="879.438" visibility="hidden"></path><path d="M 346.38 131.44 C 346.92 131.41 347.97 131.36 348.48 131.30 C 374.29 135.13 388.07 159.57 407.64 173.92 C 405.74 178.21 403.84 182.51 402.00 186.85 C 401.68 186.60 401.06 186.09 400.75 185.83 C 385.69 172.25 372.56 156.65 357.50 143.04 C 353.67 139.30 349.93 135.47 346.38 131.44 Z" fill="#e79d58" fill-rule="nonzero" node-id="94" stroke="none" target-height="55.55301" target-width="61.25302" target-x="346.385" target-y="131.301"></path><path d="M 348.48 131.30 C 354.95 126.00 363.12 130.03 369.67 132.75 C 393.66 143.44 412.18 162.78 435.09 175.23 C 426.16 180.10 415.78 180.67 407.64 173.92 C 388.07 159.57 374.29 135.13 348.48 131.30 Z" fill="#f6b055" fill-rule="nonzero" node-id="96" stroke="none" target-height="54.673996" target-width="86.60498" target-x="348.484" target-y="125.998"></path><path d="M 665.89 130.88 C 672.30 127.73 679.82 126.74 686.00 130.96 C 682.65 134.00 679.31 137.00 675.96 140.01 C 659.43 154.72 645.08 171.65 630.19 187.99 C 611.25 209.82 596.42 234.92 576.88 256.25 C 576.28 251.03 575.80 245.81 575.43 240.59 C 571.15 245.47 566.75 250.26 561.88 254.54 C 575.06 229.45 584.34 202.28 588.50 174.21 C 593.92 174.04 599.34 174.01 604.73 173.55 C 625.09 159.32 643.12 141.40 665.89 130.88 Z" fill="#eda74c" fill-rule="nonzero" node-id="98" stroke="none" target-height="129.51" target-width="124.12305" target-x="561.876" target-y="126.73601"></path><path d="M 320.18 266.60 C 315.36 220.54 320.13 170.86 346.38 131.44 C 349.93 135.47 353.67 139.30 357.50 143.04 C 356.68 143.61 355.01 144.74 354.15 145.31 C 353.05 145.20 350.81 144.94 349.70 144.80 C 333.51 175.62 326.99 211.01 328.89 245.64 C 330.05 245.78 332.38 246.12 333.54 246.29 L 335.92 246.83 C 330.70 253.44 325.29 259.88 320.18 266.60 Z" fill="#ddc7d5" fill-rule="nonzero" node-id="100" stroke="none" target-height="135.15302" target-width="42.140045" target-x="315.362" target-y="131.443"></path><path d="M 675.96 140.01 C 679.31 137.00 682.65 134.00 686.00 130.96 C 700.55 150.47 707.47 174.38 711.07 198.14 C 714.41 220.63 716.17 243.68 712.74 266.26 C 706.22 258.20 698.08 250.06 696.38 239.51 C 697.60 239.43 700.09 239.23 701.34 239.15 C 700.04 227.46 701.40 215.52 698.96 203.98 C 693.57 181.95 689.23 158.98 675.96 140.01 Z" fill="#d7ccdb" fill-rule="nonzero" node-id="102" stroke="none" target-height="135.29501" target-width="40.211" target-x="675.96" target-y="130.961"></path><path d="M 630.19 187.99 C 645.08 171.65 659.43 154.72 675.96 140.01 C 689.23 158.98 693.57 181.95 698.96 203.98 C 702.22 216.52 698.79 229.31 693.60 240.76 L 689.94 238.92 C 682.03 232.20 676.84 222.98 669.52 215.72 C 658.46 203.87 644.51 195.36 630.19 187.99 Z" fill="#fdc7d9" fill-rule="nonzero" node-id="104" stroke="none" target-height="100.75499" target-width="72.02899" target-x="630.19" target-y="140.007"></path><path d="M 349.70 144.80 C 350.81 144.94 353.05 145.20 354.15 145.31 C 336.43 174.43 331.84 210.16 336.35 243.57 L 335.64 245.67 L 333.54 246.29 C 332.38 246.12 330.05 245.78 328.89 245.64 C 326.99 211.01 333.51 175.62 349.70 144.80 Z" fill="#cbb1c3" fill-rule="nonzero" node-id="106" stroke="none" target-height="101.492004" target-width="27.165985" target-x="326.989" target-y="144.8"></path><path d="M 357.50 143.04 C 372.56 156.65 385.69 172.25 400.75 185.83 C 379.48 199.98 360.08 216.86 345.05 237.64 C 342.36 240.56 339.55 243.40 336.60 246.09 L 336.35 243.57 C 331.84 210.16 336.43 174.43 354.15 145.31 C 355.01 144.74 356.68 143.61 357.50 143.04 Z" fill="#fdc7d8" fill-rule="nonzero" node-id="108" stroke="none" target-height="103.05299" target-width="68.90903" target-x="331.838" target-y="143.041"></path><path d="M 453.55 170.32 C 463.84 168.99 474.17 167.68 484.49 166.41 C 486.08 197.69 490.73 228.94 488.74 260.30 C 485.96 258.51 483.18 256.76 480.49 254.86 C 463.84 230.21 457.24 200.30 453.66 171.20 L 453.55 170.32 Z" fill="#8a4947" fill-rule="nonzero" node-id="110" stroke="none" target-height="93.89299" target-width="37.17697" target-x="453.55" target-y="166.408"></path><path d="M 484.49 166.41 C 492.94 165.42 501.45 164.76 509.95 164.76 C 512.90 200.41 507.17 236.03 498.89 270.60 C 491.66 270.34 484.37 269.52 477.71 266.51 C 478.65 262.63 479.55 258.74 480.49 254.86 C 483.18 256.76 485.96 258.51 488.74 260.30 C 490.73 228.94 486.08 197.69 484.49 166.41 Z" fill="#d6883f" fill-rule="nonzero" node-id="112" stroke="none" target-height="105.832" target-width="35.191956" target-x="477.71002" target-y="164.763"></path><path d="M 528.47 164.54 C 537.43 165.10 546.37 165.78 555.30 166.58 C 551.64 198.74 544.63 231.18 548.97 263.65 C 553.40 260.81 557.93 258.06 561.88 254.54 C 566.75 250.26 571.15 245.47 575.43 240.59 C 575.80 245.81 576.28 251.03 576.88 256.25 C 567.58 266.40 553.09 274.54 539.13 269.60 C 526.54 236.25 526.20 199.73 528.47 164.54 Z" fill="#e29747" fill-rule="nonzero" node-id="114" stroke="none" target-height="110.000015" target-width="50.675964" target-x="526.202" target-y="164.536"></path><path d="M 555.30 166.58 C 571.77 168.96 588.05 172.87 604.73 173.55 C 599.34 174.01 593.92 174.04 588.50 174.21 C 584.34 202.28 575.06 229.45 561.88 254.54 C 557.93 258.06 553.40 260.81 548.97 263.65 C 544.63 231.18 551.64 198.74 555.30 166.58 Z" fill="#975149" fill-rule="nonzero" node-id="116" stroke="none" target-height="97.069" target-width="60.089966" target-x="544.635" target-y="166.578"></path><path d="M 435.09 175.23 C 441.10 173.21 447.42 172.36 453.66 171.20 C 457.24 200.30 463.84 230.21 480.49 254.86 C 479.55 258.74 478.65 262.63 477.71 266.51 C 457.97 256.27 445.69 237.10 431.83 220.54 C 422.16 209.09 413.79 196.30 402.00 186.85 C 403.84 182.51 405.74 178.21 407.64 173.92 C 415.78 180.67 426.16 180.10 435.09 175.23 Z" fill="#f1ab50" fill-rule="nonzero" node-id="118" stroke="none" target-height="95.30998" target-width="78.494995" target-x="401.995" target-y="171.201"></path><path d="M 274.61 196.21 C 276.17 196.30 279.29 196.52 280.85 196.64 C 275.04 205.60 269.73 215.16 267.98 225.85 C 264.29 240.62 267.35 255.74 268.17 270.62 C 260.49 266.23 260.92 256.42 260.15 248.79 C 259.30 230.61 261.34 209.88 274.61 196.21 Z" fill="#270f15" fill-rule="nonzero" node-id="120" stroke="none" target-height="74.41098" target-width="21.552002" target-x="259.298" target-y="196.212"></path><path d="M 750.26 215.86 C 754.20 214.90 755.79 219.04 757.69 221.59 C 765.91 235.77 768.04 253.21 764.80 269.18 C 763.47 272.47 762.11 279.33 757.38 275.47 C 764.01 255.65 758.17 234.52 748.19 216.94 L 750.26 215.86 Z" fill="#2a0915" fill-rule="nonzero" node-id="122" stroke="none" target-height="64.429016" target-width="19.851013" target-x="748.187" target-y="214.9"></path><path d="M 316.87 300.46 C 324.63 281.60 325.03 258.74 340.94 244.11 C 337.34 261.97 331.84 279.39 327.75 297.14 C 320.10 328.70 308.73 360.12 309.07 392.96 C 302.40 391.71 295.68 390.72 288.96 389.93 C 292.25 358.50 305.41 329.49 316.87 300.46 Z" fill="#d1c9d9" fill-rule="nonzero" node-id="124" stroke="none" target-height="148.85004" target-width="51.98001" target-x="288.961" target-y="244.10898"></path><path d="M 483.78 892.37 C 481.59 884.57 490.22 878.42 497.33 880.40 C 503.12 880.37 503.57 887.12 504.59 891.35 C 498.72 891.69 492.85 891.89 487.01 892.25 C 490.36 899.66 497.90 897.78 504.11 896.28 C 499.80 905.64 484.69 902.35 483.78 892.37 Z M 488.17 888.99 C 492.26 888.88 496.37 888.68 500.45 888.40 C 498.72 882.05 489.42 882.61 488.17 888.99 Z" fill="#341922" fill-rule="nonzero" hidden="true" node-id="126" stroke="none" target-height="27.223022" target-width="22.999023" target-x="481.59497" target-y="878.417" visibility="hidden"></path><path d="M 376.27 355.95 C 393.23 344.92 415.10 335.02 435.43 342.31 C 454.12 349.20 462.14 373.48 451.85 390.41 C 442.94 408.36 416.34 412.19 402.48 397.89 C 389.26 386.52 387.76 365.93 396.81 351.50 C 390.14 353.71 383.42 356.29 376.27 355.95 Z" fill="#3a1d2a" fill-rule="nonzero" node-id="128" stroke="none" target-height="77.16101" target-width="85.86801" target-x="376.274" target-y="335.024"></path><path d="M 586.80 376.20 C 584.68 359.55 597.58 343.13 614.14 340.98 C 631.64 338.26 647.52 347.90 662.01 356.29 C 658.07 363.75 650.81 356.12 645.87 354.14 C 655.00 372.43 648.14 398.74 627.87 405.95 C 608.41 412.38 587.71 395.94 586.80 376.20 Z" fill="#381e2b" fill-rule="nonzero" node-id="130" stroke="none" target-height="74.127014" target-width="77.33197" target-x="584.676" target-y="338.257"></path><path d="M 287.15 397.95 C 293.44 398.74 299.74 399.60 306.03 400.39 L 306.00 400.90 C 305.95 407.11 305.92 413.32 305.92 419.56 C 303.56 420.98 301.15 422.37 298.74 423.73 C 295.60 424.75 288.42 427.38 288.68 421.63 C 287.54 413.77 287.46 405.86 287.15 397.95 Z" fill="#c5c1d0" fill-rule="nonzero" node-id="132" stroke="none" target-height="29.435028" target-width="18.886017" target-x="287.146" target-y="397.94998"></path><path d="M 371.00 400.19 C 380.44 399.11 390.20 400.30 399.07 403.65 C 410.81 408.58 418.05 425.23 409.79 436.09 C 397.17 453.62 370.01 457.08 352.62 444.77 C 347.24 438.53 340.18 430.22 343.55 421.43 C 347.55 409.77 359.12 401.98 371.00 400.19 Z M 361.02 420.64 C 372.73 422.90 384.61 424.12 396.52 424.21 C 394.88 419.96 391.42 416.67 386.74 416.27 C 378.17 415.05 367.54 413.52 361.02 420.64 Z" fill="#f8cedd" fill-rule="nonzero" node-id="134" stroke="none" target-height="57.962982" target-width="77.870026" target-x="340.175" target-y="399.113"></path><path d="M 497.73 404.08 C 504.23 399.06 512.70 399.96 520.39 399.76 C 527.79 399.99 535.87 399.37 542.17 404.05 C 536.92 411.73 528.41 416.64 523.51 424.44 C 522.20 439.32 543.22 448.40 554.28 439.10 C 560.00 435.98 559.18 426.08 566.67 425.91 C 565.68 435.10 560.40 444.17 551.21 447.12 C 539.76 451.89 527.73 445.36 519.82 437.20 C 513.33 444.43 504.79 451.89 494.30 450.35 C 483.95 449.48 473.51 440.80 474.48 429.77 C 479.27 424.07 479.87 434.99 481.99 437.54 C 492.20 452.03 517.10 441.17 516.84 424.52 C 511.00 417.26 502.16 412.67 497.73 404.08 Z M 505.47 405.38 C 512.11 412.36 527.11 413.18 533.09 405.10 C 523.93 403.88 514.60 403.90 505.47 405.38 Z" fill="#401a2e" fill-rule="nonzero" node-id="136" stroke="none" target-height="52.972015" target-width="93.15497" target-x="473.51404" target-y="399.056"></path><path d="M 701.42 405.52 C 716.94 402.03 732.73 400.08 748.53 398.20 C 748.39 407.37 748.07 416.52 747.56 425.68 C 732.42 425.85 717.11 422.56 702.08 425.57 C 698.96 428.92 699.61 431.41 704.03 433.08 C 702.67 436.97 701.31 440.83 699.95 444.71 C 702.25 447.15 704.55 449.59 706.84 452.06 C 699.18 451.32 691.53 450.78 683.84 450.75 C 687.11 441.45 692.78 433.34 696.75 424.41 C 696.61 417.55 691.56 412.19 687.73 406.97 C 689.06 405.78 690.42 404.59 691.78 403.42 C 694.73 405.61 697.94 406.31 701.42 405.52 Z" fill="#e7e6e8" fill-rule="nonzero" node-id="138" stroke="none" target-height="53.85205" target-width="64.68402" target-x="683.844" target-y="398.20496"></path><path d="M 634.84 411.62 C 648.68 398.18 671.42 397.78 687.73 406.97 C 691.56 412.19 696.61 417.55 696.75 424.41 C 692.78 433.34 687.11 441.45 683.84 450.75 L 682.31 454.61 C 666.32 453.16 647.52 455.69 635.21 442.95 C 625.51 435.30 626.22 419.81 634.84 411.62 Z M 647.91 424.15 C 658.83 428.44 670.86 426.82 682.28 426.39 C 680.36 415.67 666.83 419.27 659.09 418.74 C 655.54 419.59 645.93 417.80 647.91 424.15 Z" fill="#f9ccda" fill-rule="nonzero" node-id="140" stroke="none" target-height="57.906036" target-width="71.23395" target-x="625.512" target-y="397.78"></path><path d="M 505.47 405.38 C 514.60 403.90 523.93 403.88 533.09 405.10 C 527.11 413.18 512.11 412.36 505.47 405.38 Z" fill="#9d6875" fill-rule="nonzero" node-id="142" stroke="none" target-height="9.300995" target-width="27.620026" target-x="505.473" target-y="403.877"></path><path d="M 361.02 420.64 C 367.54 413.52 378.17 415.05 386.74 416.27 C 391.42 416.67 394.88 419.96 396.52 424.21 C 384.61 424.12 372.73 422.90 361.02 420.64 Z" fill="#f9ecee" fill-rule="nonzero" node-id="144" stroke="none" target-height="10.6910095" target-width="35.503998" target-x="361.018" target-y="413.51797"></path><path d="M 647.91 424.15 C 645.93 417.80 655.54 419.59 659.09 418.74 C 666.83 419.27 680.36 415.67 682.28 426.39 C 670.86 426.82 658.83 428.43 647.91 424.15 Z" fill="#f8e7eb" fill-rule="nonzero" node-id="146" stroke="none" target-height="12.760986" target-width="36.35498" target-x="645.929" target-y="415.673"></path><path d="M 290.80 433.51 C 295.82 433.03 300.96 431.55 306.03 432.32 C 307.28 432.94 309.77 434.25 311.02 434.90 C 311.82 441.39 311.76 447.97 311.33 454.52 C 307.37 455.23 303.39 455.86 299.40 456.48 C 296.31 448.91 293.41 441.25 290.80 433.51 Z" fill="#bbb8c2" fill-rule="nonzero" node-id="148" stroke="none" target-height="24.926056" target-width="21.013" target-x="290.804" target-y="431.554"></path><path d="M 704.03 433.08 C 717.73 432.80 731.43 433.99 745.04 435.33 C 742.09 442.47 739.54 449.87 735.51 456.54 C 726.24 457.90 716.77 453.62 707.41 452.65 L 706.84 452.06 C 704.55 449.59 702.25 447.15 699.95 444.71 C 701.31 440.83 702.67 436.97 704.03 433.08 Z" fill="#d9d5da" fill-rule="nonzero" node-id="150" stroke="none" target-height="25.096008" target-width="45.08893" target-x="699.95105" target-y="432.802"></path><path d="M 311.02 434.90 C 314.28 435.55 317.57 436.18 320.83 436.74 C 321.51 441.05 322.17 445.39 322.82 449.70 C 327.10 449.93 331.41 450.19 335.72 450.27 C 327.58 451.75 319.42 452.82 311.33 454.52 C 311.76 447.97 311.82 441.39 311.02 434.90 Z" fill="#e4e5e9" fill-rule="nonzero" node-id="152" stroke="none" target-height="19.623993" target-width="24.699982" target-x="311.023" target-y="434.9"></path><path d="M 305.89 465.19 C 312.67 463.91 319.42 462.58 326.17 461.05 C 351.32 486.09 383.65 501.23 413.25 519.97 C 412.37 521.82 410.64 525.50 409.79 527.38 C 391.47 518.95 371.28 515.41 353.48 505.82 C 335.04 495.87 317.43 482.97 305.89 465.19 Z" fill="#cccbd9" fill-rule="nonzero" node-id="154" stroke="none" target-height="66.32898" target-width="107.362976" target-x="305.89" target-y="461.04602"></path><path d="M 702.11 461.13 C 711.01 462.35 719.77 464.25 728.54 466.32 C 701.71 499.98 659.77 519.89 617.57 524.94 C 620.97 520.74 623.98 515.92 628.91 513.34 C 654.58 498.11 685.32 487.45 702.11 461.13 Z" fill="#d7d5de" fill-rule="nonzero" node-id="156" stroke="none" target-height="63.804962" target-width="110.96503" target-x="617.571" target-y="461.131"></path><path d="M 366.12 528.14 C 368.70 522.27 375.71 527.63 380.16 527.80 C 373.58 541.92 364.62 554.80 358.58 569.17 C 351.29 584.86 347.07 601.64 341.59 617.98 C 338.84 615.17 335.95 612.50 333.06 609.87 C 338.84 580.86 351.75 553.80 366.12 528.14 Z" fill="#d0cde0" fill-rule="nonzero" node-id="158" stroke="none" target-height="95.70703" target-width="47.102997" target-x="333.057" target-y="522.271"></path><path d="M 449.49 542.12 C 476.15 554.43 486.25 585.20 491.78 611.85 C 494.56 630.77 496.77 651.98 486.79 669.22 C 478.99 682.46 460.84 684.14 447.74 678.75 C 429.62 671.63 419.80 653.09 413.45 635.79 C 407.98 618.52 401.91 601.28 398.82 583.41 C 415.44 602.41 421.96 627.51 434.55 648.97 C 440.53 659.35 450.51 668.26 463.11 668.51 C 462.62 659.01 461.46 649.48 462.62 640.01 C 466.40 648.80 466.85 658.53 468.64 667.83 C 479.64 665.34 479.04 651.75 479.64 642.90 C 480.55 607.68 475.78 568.15 449.49 542.12 Z" fill="#361921" fill-rule="nonzero" node-id="160" stroke="none" target-height="142.01605" target-width="97.94803" target-x="398.819" target-y="542.121"></path><path d="M 543.19 588.77 C 549.77 570.48 560.43 550.71 579.83 543.79 C 561.11 564.72 552.80 592.71 550.02 620.11 C 549.97 635.33 548.52 653.85 560.86 665.08 C 561.45 664.85 562.59 664.46 563.18 664.23 C 565.90 655.13 566.24 644.95 572.23 637.12 C 572.82 647.24 570.75 657.25 569.85 667.29 C 588.79 665.19 598.57 646.79 606.48 631.70 C 617.71 611.34 625.65 587.98 643.66 572.35 C 625.91 602.81 623.24 641.00 599.05 667.77 C 583.29 685.50 549.54 682.63 540.27 659.69 C 531.19 637.01 535.87 611.31 543.19 588.77 Z" fill="#381b24" fill-rule="nonzero" node-id="162" stroke="none" target-height="141.70398" target-width="112.46698" target-x="531.193" target-y="543.794"></path><path d="M 727.43 578.25 C 729.33 577.23 731.26 576.26 733.22 575.36 C 749.07 597.70 760.35 623.90 762.00 651.47 C 762.59 657.85 760.33 664.14 755.79 668.65 C 748.61 663.49 754.11 655.64 753.58 648.72 C 750.63 623.57 740.99 599.52 727.43 578.25 Z" fill="#311721" fill-rule="nonzero" node-id="164" stroke="none" target-height="93.29797" target-width="35.163025" target-x="727.43" target-y="575.356"></path><path d="M 333.06 609.87 C 335.95 612.50 338.84 615.17 341.59 617.98 C 343.55 619.96 345.42 622.00 347.38 624.02 C 344.54 636.64 344.43 649.65 342.47 662.41 C 337.11 660.80 331.75 659.18 326.42 657.59 C 326.65 653.37 326.93 649.17 327.24 645.00 C 328.49 633.18 330.45 621.47 333.06 609.87 Z" fill="#e59449" fill-rule="nonzero" node-id="166" stroke="none" target-height="52.546997" target-width="20.957" target-x="326.421" target-y="609.868"></path><path d="M 664.33 656.40 C 672.70 639.39 685.77 625.07 699.47 612.16 C 704.35 625.32 707.27 639.08 710.30 652.72 C 696.26 659.01 680.64 665.88 672.98 680.05 C 679.14 683.23 685.80 685.44 692.80 684.99 C 695.07 685.04 699.61 685.16 701.88 685.22 C 702.67 696.08 702.96 706.97 702.76 717.86 C 690.68 710.71 677.69 703.70 669.61 691.79 C 662.89 681.61 658.55 668.03 664.33 656.40 Z" fill="#e59e46" fill-rule="nonzero" node-id="168" stroke="none" target-height="105.69" target-width="51.75403" target-x="658.548" target-y="612.165"></path><path d="M 347.38 624.02 C 359.66 635.93 371.00 649.06 379.31 664.09 C 383.08 671.09 384.56 680.02 380.39 687.23 C 372.02 702.60 356.08 712.44 339.21 715.90 C 338.39 707.67 338.36 699.42 338.56 691.20 C 344.34 690.55 350.18 689.98 355.97 689.10 C 361.78 688.28 367.62 686.01 371.74 681.67 C 373.67 676.99 368.31 675.20 365.24 673.16 C 357.95 669.22 350.04 666.64 342.33 663.78 L 342.47 662.41 C 344.43 649.65 344.54 636.64 347.38 624.02 Z" fill="#efa849" fill-rule="nonzero" node-id="170" stroke="none" target-height="91.87897" target-width="46.195038" target-x="338.36" target-y="624.019"></path><path d="M 274.53 637.01 C 284.37 632.95 297.30 631.76 303.82 642.03 C 301.64 644.29 299.45 646.56 297.30 648.86 C 294.97 645.54 292.68 642.25 290.38 638.96 C 284.96 641.17 279.57 643.50 274.24 645.91 C 274.33 643.25 274.41 640.61 274.50 637.97 L 274.53 637.01 Z" fill="#a25a3c" fill-rule="nonzero" node-id="172" stroke="none" target-height="17.099976" target-width="29.576996" target-x="274.243" target-y="631.76"></path><path d="M 242.57 676.65 C 250.93 662.16 259.44 646.48 274.50 637.97 C 274.41 640.61 274.33 643.25 274.24 645.91 C 279.57 643.50 284.96 641.17 290.38 638.96 C 292.68 642.25 294.97 645.54 297.30 648.86 C 292.62 654.28 287.94 659.72 283.20 665.11 C 276.60 664.26 268.12 663.63 264.29 670.50 C 262.62 679.12 264.15 688.02 264.09 696.76 C 260.92 691.40 256.72 686.12 256.55 679.63 C 256.18 671.32 259.78 663.61 262.05 655.84 C 256.83 661.99 252.49 668.82 249.20 676.20 C 247.56 676.31 244.24 676.54 242.57 676.65 Z" fill="#b4714c" fill-rule="nonzero" node-id="174" stroke="none" target-height="58.784973" target-width="54.731003" target-x="242.567" target-y="637.971"></path><path d="M 324.72 686.49 C 325.80 672.68 323.56 658.50 327.24 645.00 C 326.93 649.17 326.65 653.37 326.42 657.59 C 331.75 659.18 337.11 660.80 342.47 662.41 L 342.33 663.78 C 341.82 672.37 342.58 680.99 343.38 689.55 C 337.11 688.87 330.90 687.68 324.72 686.49 Z" fill="#66353f" fill-rule="nonzero" node-id="176" stroke="none" target-height="44.550964" target-width="19.821991" target-x="323.557" target-y="645.003"></path><path d="M 672.98 680.05 C 680.64 665.88 696.26 659.01 710.30 652.72 C 711.98 661.68 713.68 670.61 715.58 679.54 C 708.00 681.47 700.46 683.51 692.80 684.99 C 685.80 685.44 679.14 683.23 672.98 680.05 Z" fill="#85434d" fill-rule="nonzero" node-id="178" stroke="none" target-height="32.725037" target-width="42.592957" target-x="672.983" target-y="652.717"></path><path d="M 249.20 676.20 C 252.49 668.82 256.83 661.99 262.05 655.84 C 259.78 663.61 256.18 671.32 256.55 679.63 C 256.72 686.12 260.92 691.40 264.09 696.76 C 264.15 688.02 262.62 679.12 264.29 670.50 C 268.12 663.63 276.60 664.26 283.20 665.11 C 274.98 678.81 267.92 693.15 263.30 708.50 L 263.07 708.98 C 258.93 697.86 253.97 687.06 249.20 676.20 Z" fill="#9b5b45" fill-rule="nonzero" node-id="180" stroke="none" target-height="53.143005" target-width="34.001022" target-x="249.20299" target-y="655.836"></path><path d="M 278.04 706.51 C 285.08 688.22 296.39 671.77 309.29 657.14 C 306.20 671.06 306.40 685.38 305.58 699.56 C 304.70 717.63 305.46 736.03 311.08 753.36 C 302.26 757.24 294.46 763.17 285.42 766.49 C 262.87 757.44 251.36 734.64 242.48 713.54 C 249.54 713.03 256.46 711.42 263.07 708.98 L 263.30 708.50 C 260.69 725.51 267.66 743.89 281.87 753.84 C 286.81 757.41 293.61 760.22 299.23 756.48 C 299.14 752.45 294.41 751.32 292.00 748.91 C 279.66 739.21 271.78 721.80 278.04 706.51 Z" fill="#fcfcfc" fill-rule="nonzero" node-id="182" stroke="none" target-height="109.346985" target-width="68.59799" target-x="242.482" target-y="657.141"></path><path d="M 488.18 888.99 C 489.42 882.61 498.72 882.05 500.45 888.40 C 496.37 888.68 492.26 888.88 488.18 888.99 Z" fill="#fcfcfc" fill-rule="nonzero" hidden="true" node-id="184" stroke="none" target-height="6.947998" target-width="12.278992" target-x="488.175" target-y="882.046" visibility="hidden"></path><path d="M 342.33 663.78 C 350.04 666.64 357.95 669.22 365.24 673.16 C 368.31 675.20 373.67 676.99 371.74 681.67 C 367.62 686.01 361.78 688.28 355.97 689.10 C 351.77 689.38 347.58 689.53 343.38 689.55 C 342.58 680.99 341.82 672.37 342.33 663.78 Z" fill="#94554c" fill-rule="nonzero" node-id="186" stroke="none" target-height="25.777954" target-width="31.845978" target-x="341.82" target-y="663.776"></path><path d="M 242.57 676.65 C 244.24 676.54 247.56 676.31 249.20 676.20 C 253.97 687.06 258.93 697.86 263.07 708.98 C 256.46 711.42 249.54 713.03 242.48 713.54 C 240.38 713.43 236.16 713.23 234.06 713.12 C 233.83 700.42 237.15 688.05 242.57 676.65 Z" fill="#e09742" fill-rule="nonzero" node-id="188" stroke="none" target-height="37.346985" target-width="29.237" target-x="233.83301" target-y="676.197"></path><path d="M 692.80 684.99 C 700.46 683.51 708.00 681.47 715.58 679.54 C 718.61 693.78 719.26 708.35 720.00 722.85 C 714.22 721.29 708.46 719.67 702.76 717.86 C 702.96 706.97 702.67 696.08 701.88 685.22 C 699.61 685.16 695.07 685.04 692.80 684.99 Z" fill="#b56a4b" fill-rule="nonzero" node-id="190" stroke="none" target-height="43.30298" target-width="27.195007" target-x="692.805" target-y="679.543"></path><path d="M 324.72 686.49 C 330.90 687.68 337.11 688.87 343.38 689.55 C 347.58 689.53 351.77 689.38 355.97 689.10 C 350.18 689.98 344.34 690.55 338.56 691.20 C 338.36 699.42 338.39 707.67 339.21 715.90 L 339.35 716.89 C 333.82 717.03 328.26 717.17 322.74 717.34 C 323.84 707.08 324.12 696.76 324.72 686.49 Z" fill="#c16e43" fill-rule="nonzero" node-id="192" stroke="none" target-height="30.853027" target-width="33.235016" target-x="322.735" target-y="686.491"></path><path d="M 600.53 726.13 C 606.09 719.50 611.13 711.45 619.87 708.70 C 601.89 736.51 586.86 769.95 593.84 803.75 C 547.95 811.78 500.65 817.53 454.46 808.46 C 459.68 775.82 444.50 744.57 431.20 715.67 C 435.91 718.00 441.13 720.01 444.22 724.55 C 453.75 736.91 460.13 751.60 471.22 762.83 C 494.05 786.59 534.37 790.93 561.54 772.05 C 578.47 760.50 587.97 741.76 600.53 726.13 Z" fill="#d2cadb" fill-rule="nonzero" node-id="194" stroke="none" target-height="108.836914" target-width="188.66397" target-x="431.204" target-y="708.695"></path><path d="M 234.06 713.12 C 236.16 713.23 240.38 713.43 242.48 713.54 C 251.36 734.64 262.87 757.44 285.42 766.49 C 294.46 763.17 302.26 757.24 311.08 753.36 C 316.35 766.18 323.05 778.48 332.01 789.15 C 319.70 789.06 306.85 790.62 295.09 786.03 C 263.95 774.68 239.33 746.01 234.06 713.12 Z" fill="#cfc6dc" fill-rule="nonzero" node-id="196" stroke="none" target-height="77.50195" target-width="97.948" target-x="234.06" target-y="713.119"></path><path d="M 322.74 717.34 C 328.26 717.17 333.82 717.03 339.35 716.89 C 342.50 737.25 349.62 760.73 369.89 770.12 C 384.38 779.11 402.05 778.51 417.45 784.84 C 413.62 795.24 414.27 806.44 413.48 817.31 C 407.67 817.28 401.29 818.70 395.95 815.63 C 391.11 807.81 390.88 798.28 388.87 789.54 C 385.15 797.94 387.02 807.15 388.04 815.92 C 371.20 809.17 365.10 790.17 364.76 773.49 C 354.61 777.66 358.78 791.13 358.89 799.58 C 337.74 777.52 321.20 748.82 322.74 717.34 Z" fill="#d5cfde" fill-rule="nonzero" node-id="198" stroke="none" target-height="101.80408" target-width="96.246" target-x="321.204" target-y="716.891"></path><path d="M 702.76 717.86 C 708.46 719.67 714.22 721.29 720.00 722.85 C 718.75 748.91 708.09 773.75 692.01 794.05 C 692.61 785.29 691.53 776.13 684.01 770.57 C 682.03 786.20 677.92 802.39 666.52 813.96 C 664.56 804.74 664.39 794.96 659.91 786.48 C 659.31 795.33 660.62 804.37 658.35 813.08 C 656.71 818.87 648.14 821.39 643.80 816.94 C 636.40 810.22 634.25 800.04 629.99 791.41 C 629.20 791.44 627.64 791.53 626.84 791.56 C 626.22 788.49 625.74 785.43 625.23 782.37 C 633.23 778.62 641.50 774.88 650.55 775.02 C 660.39 774.23 671.99 775.93 679.85 768.56 C 693.20 755.06 700.38 736.49 702.76 717.86 Z" fill="#cfccda" fill-rule="nonzero" node-id="200" stroke="none" target-height="103.534" target-width="94.77197" target-x="625.228" target-y="717.855"></path><path d="M 280.37 796.58 C 301.27 809.68 326.65 806.81 350.10 807.86 C 363.88 812.54 373.41 825.19 387.59 829.36 C 367.40 830.63 347.32 827.23 327.36 824.76 C 311.59 822.04 295.43 820.23 280.37 814.55 C 277.36 812.65 272.00 811.92 271.86 807.55 C 273.22 802.96 277.42 800.09 280.37 796.58 Z" fill="#a393a6" fill-rule="nonzero" node-id="202" stroke="none" target-height="34.057983" target-width="115.728" target-x="271.861" target-y="796.576"></path><path d="M 658.75 829.81 C 674.46 827.40 685.29 815.69 696.07 805.25 C 721.82 805.22 747.45 809.56 773.23 809.59 C 769.91 812.74 765.94 815.12 761.46 816.23 C 728.08 826.01 693.03 825.98 658.75 829.81 Z" fill="#a598a8" fill-rule="nonzero" node-id="204" stroke="none" target-height="24.585999" target-width="114.48102" target-x="658.747" target-y="805.2249"></path><path d="M 552.97 869.37 L 558.13 869.31 C 558.30 880.66 558.70 892.03 557.51 903.37 C 554.90 900.45 552.26 897.59 549.65 894.69 L 554.42 893.84 C 553.79 889.05 551.92 883.04 545.80 884.00 C 537.97 886.30 539.70 899.37 548.83 897.42 C 548.72 898.66 548.46 901.16 548.32 902.41 C 543.16 901.27 535.11 899.43 535.76 892.40 C 534.43 882.41 546.31 876.35 554.16 882.13 C 553.71 877.85 553.31 873.62 552.97 869.37 Z" fill="#3f2527" fill-rule="nonzero" hidden="true" node-id="206" stroke="none" target-height="34.058044" target-width="24.273987" target-x="534.426" target-y="869.31396" visibility="hidden"></path><path d="M 456.73 874.67 C 459.22 870.65 461.77 870.59 464.38 874.53 C 461.92 878.36 459.36 878.42 456.73 874.67 Z" fill="#311922" fill-rule="nonzero" hidden="true" node-id="208" stroke="none" target-height="7.8269653" target-width="7.656006" target-x="456.72598" target-y="870.59" visibility="hidden"></path><path d="M 459.31 881.11 C 460.38 881.00 462.51 880.77 463.59 880.66 C 463.31 887.97 467.19 897.67 460.61 903.03 C 459.33 895.80 458.99 888.43 459.31 881.11 Z" fill="#351412" fill-rule="nonzero" hidden="true" node-id="210" stroke="none" target-height="22.374023" target-width="8.196014" target-x="458.994" target-y="880.657" visibility="hidden"></path></svg>